<svg id="Layer_1" data-name="Layer 1" xmlns="http://www.w3.org/2000/svg" viewBox="0 0 150 150"><defs><style>.cls-1{fill:#003538;}.cls-2{fill:#f2f0ed;}</style></defs><title>alcohol</title><path class="cls-1" d="M46.82,20.75c1.41,0,4.27-1.36,5.68-1.37C43,22,35.87,29.37,29,34.66,28,36.05,27.56,38,25.15,38,8.9,53.93,6.32,77.23,17.78,95.69a38.81,38.81,0,0,1-7.57-30c-1.57,5.26-1.76,11.81-1.92,17L6.92,81.4c1,14.39,10.54,24.77,21.55,33.82-2.78-1.28-4.15-2.57-6.93-3.85A20.65,20.65,0,0,0,25.17,115c-1.72-.67-3.43-1.31-5.16-1.87a125,125,0,0,0,20,8.41l-.3-.21c3.58,1.49,7.55.29,11.59,2.92A81.35,81.35,0,0,1,40,121.52c2.36,1.75,7,2.78,10,3.11l1.79.75C39.28,124,29,120.67,19.15,114.65c12.11,7.91,27.28,12.33,43.72,12.51-9.75,1.65-18.69-2.07-28.49-4.25,10.55,5.16,22.8,7.27,35.34,6.75,2.84-.69,5.76-1.43,8.72-.77q-4.36.59-8.72.77a32.14,32.14,0,0,1-4.24.85,137,137,0,0,0,30.65-5.67c-4,1.2-7.95,2.4-11.47,4.74l2.65-.8A3.84,3.84,0,0,1,87,129a95,95,0,0,0,16.66-7.67,5.13,5.13,0,0,1-3.51,2.35l4-1.2c-1.32.4-3.51,2.34-4.84,2.74,3.12.35,4.38-3.89,7.5-3.54l-1.33.4,4-1.2c-4,1.2-7,4.69-11,5.89l4-1.2a.9.9,0,0,1-.27,1.12c10.58-4.68,19.13-11.1,25.27-20.22.21-.39.43-.77.86-1.54-3,3.49-6.1,7-10.94,9.72,3-3.49,5.64-8.12,9.15-10.47l-1.72,3.09c3.91-5,7.82-10.07,8.62-15.45a8.38,8.38,0,0,1,.76,2.6l1-1.85c-3.26,17.68-19,30.15-36.68,38l2.66-.8c-4.38,3.89-10.61,3.2-13.66,6.69,6.63-2,13.72-2.85,19.42-7.14a.88.88,0,0,1-.09.94c6.55-3.16,12.06-6.2,16.8-11.12-1.33.4-3.52,2.35-4.84,2.75,8-4.88,11.88-13.22,16.39-19.7.39-1.46,0-3.24,2.31-3.92,9.25-18.26,2.8-39.14-15.05-52,9.86,6,16.22,14.38,18.59,23.94-.52-5-2.84-10.7-4.69-15.28l1.79.74c-.34-.66-.72-1.29-1.1-1.91,1.53,1.38,3.07,2.73,4.66,4-2.27-2.58-4.69-5.16-7.28-7.65a41.4,41.4,0,0,0-8.8-8A23.47,23.47,0,0,0,118.27,37l-1.37-1.3c11.13,5.12,19.4,11.58,26.18,20.68-8.11-11.7-20.54-20.74-35.9-25.82,9.84,1.21,16.7,7.69,25,12.84C124.42,35,113.77,29.19,101.77,26c-3-.13-6-.25-8.5-1.8a84.27,84.27,0,0,1,8.5,1.8,31.39,31.39,0,0,1,4.34.39A128.87,128.87,0,0,0,75,23.07c4.24,0,8.47-.09,12.74-1.44l-2.82,0,.41-.08a97.72,97.72,0,0,0-18.83,2.89,5.61,5.61,0,0,1,4.27-1.35l-4.23,0c1.41,0,4.27-1.35,5.68-1.37-2.78-1.28-5.72,2.68-8.51,1.4l1.42,0-4.24,0c4.24,0,8.55-2.71,12.78-2.75l-4.23,0a1.11,1.11,0,0,1,.71-1.07C58.23,21.09,47.54,25.11,38,32.62L36.55,34c4.31-2.67,8.62-5.33,14.31-6.7-4.31,2.67-8.66,6.64-12.94,8l2.9-2.65c-5.76,4-11.52,8-14.5,13.25A9.29,9.29,0,0,1,26.69,43L25,44.55c10.39-17.14,30.38-25.2,50.21-28l-2.82,0c5.72-2.68,11.28-.12,15.6-2.78-7.06.07-14.08-1.16-21.21,1.53a1.11,1.11,0,0,1,.48-.94C59.75,15.65,53.31,17.12,46.82,20.75Zm58.91,13.81-.08,0h.06ZM67.11,121.73l.17-.09.35,0,0,0Zm13.34-5.56c-.94.4-1.89.77-2.86,1.1A11.31,11.31,0,0,1,80.45,116.17Zm-24.74,8c-1.79-.75-3.11-.35-4.9-1.09l1.29-.39-.09,0c-6.16-.14-11.76-1.81-17.14-3.84a24.44,24.44,0,0,0,3.36.21c-2.74-2.59-8.38-2.53-9.68-6.45,8.35,3.85,15.29,7.7,25.17,7.6a1.38,1.38,0,0,0-1.45,1.32l9.87-.1a16.23,16.23,0,0,0-1.62.13c-1.38,0-2.81-.08-4.41-.06l1.38.58-1.81.34c.5,0,1,0,1.49,0a11.36,11.36,0,0,1-3.28.28c.57-.08,1.17-.18,1.79-.29a17.74,17.74,0,0,0-2.4.24,15.69,15.69,0,0,1-3.6-.9l-.16,0a12.13,12.13,0,0,0,2.49,1h.09c.13,0,.26,0,.4.09l-.27,0,.36,0a20.48,20.48,0,0,0,2.75.45l-.09-.22a3.64,3.64,0,0,0,.35.24c2.48.21,5,.08,7.2.06-2.51.75-5,1.48-7.2-.06l-.26,0ZM118.61,38,117,37.21l-.13-.17C117.45,37.35,118,37.69,118.61,38Z"/><path class="cls-2" d="M36.62,93.55c-1.15,0-1.58-.47-1.33-1.39a43.29,43.29,0,0,0,1.32-6.78,9.53,9.53,0,0,0-3.12-.87c-1.55-.26-3-.43-4.22-.53A7.89,7.89,0,0,0,28,86.6c-.37,1.16-.75,2.33-1.13,3.51a9.82,9.82,0,0,1-1.34,2.81c-1.5,0-2.35-.37-2.54-1.08.54-.69,1.53-4.27,3.1-10.51a124.07,124.07,0,0,0,2.67-14.61,69.94,69.94,0,0,1,1.77-9.33c.72-2.6,1.55-4,2.3-4s1.61.26,1.73.54c.34.77.28,5.32,1.82,11.19S38.8,74.18,39,75.73a44.75,44.75,0,0,1,1.11,7.72,26.39,26.39,0,0,1-1,8.29A2.39,2.39,0,0,1,36.62,93.55Zm-.73-16.82c-.69-3-1.37-5.92-1.92-8.72s-1-4.74-1-5.37a8.42,8.42,0,0,1-.08-1.08c-.51.57-.92,3.94-1.65,9.51S30,80.2,29.82,81.69a20.75,20.75,0,0,0,4.51.69,14.62,14.62,0,0,0,2.53-.11A36.9,36.9,0,0,0,35.89,76.73Z"/><path class="cls-2" d="M47,74.37c.16.62.24.93.39,1.56l0,.21a22.44,22.44,0,0,1-.1,13c-.16.54-.24.81-.43,1.35l4.35-.05c.62.52.81,1,.6,1.52a3.17,3.17,0,0,1-1,1.23,2,2,0,0,1-1.09.49,2.37,2.37,0,0,1-.9-.2,5,5,0,0,1-1.11.12L46,93.53a2.84,2.84,0,0,1-1.74.69A1.32,1.32,0,0,1,43,93.68,1.25,1.25,0,0,1,43,92.46c.51-1,.75-1.43,1.18-2.36,1.23-4,1.38-9.54-.49-17.11s-3-14.34-2.73-19.14a1.24,1.24,0,0,1,.46-.94,1.47,1.47,0,0,1,1-.37,1.3,1.3,0,0,1,1,.53,1.85,1.85,0,0,1,.38,1.32C43.41,63.58,45.15,67.27,47,74.37Z"/><path class="cls-2" d="M56.06,68.88c.2,1.42.33,2.1.56,3.47.14.46.22.69.36,1.16,1.13,3.74,1.72,6.17,2.07,7.38a24.78,24.78,0,0,1,.67,3.3c.15,1,.29,1.85.48,2.58s.4,1.41.64,2.08a2.61,2.61,0,0,0,2.72,2,5.71,5.71,0,0,0,2.59-1,5.75,5.75,0,0,1,2.29-1c.45,0,1.18.45,1.24.84.18,1.18-2.21,3.43-4.72,4.32a11.42,11.42,0,0,1-3.67.63,3.6,3.6,0,0,1-2.59-.84,4.18,4.18,0,0,1-1.14-2,17.36,17.36,0,0,1-.43-3c-.1-1.18-.25-2.33-.35-3.42s-.21-2.38-.4-3.76a57.9,57.9,0,0,0-2-7.64c-.63-2.31-1-3.48-1.56-5.93a19.9,19.9,0,0,1-.63-5,9,9,0,0,1-.32-1.8,7,7,0,0,1,2.54-6A10.11,10.11,0,0,1,61,52.62a3.17,3.17,0,0,1,2.26.89,2.26,2.26,0,0,1,.65,2.3,1.71,1.71,0,0,1-.62,1.06,2.55,2.55,0,0,1-1.51.4,1.19,1.19,0,0,1-1.31-.74v0l-.72,0c0-.07,0-.1,0-.16a4.6,4.6,0,0,0-4.29,2.3c-.69,1.35-1,3.63-.41,6.56C55.41,66.77,55.62,67.49,56.06,68.88Z"/><path class="cls-2" d="M83.73,76.62a26.77,26.77,0,0,1,1,6.48c0,.1,0,.14,0,.24-.11,1-.16,2.13-.2,3.38a9,9,0,0,1-1,3.74,11.42,11.42,0,0,1-2.72,3.44,5.33,5.33,0,0,1-3.33,1.54,2.35,2.35,0,0,1-2.16-1.25,8.08,8.08,0,0,1-.89-3c-.15-1.18-.27-2.53-.46-4s-.45-2.88-.73-4.2a30.68,30.68,0,0,0-1.11-4c-.73-2.08-1.4-3.66-1.79-4.79s-.73-2.11-1-2.93-.56-1.57-.76-2.23c-.1-.33-.2-.71-.31-1.12s-.21-.87-.29-1.35a20.53,20.53,0,0,1-.28-2.74,15.66,15.66,0,0,1,.14-2.74,13.38,13.38,0,0,1,.64-2.75,12.68,12.68,0,0,1,1.17-2.45,11,11,0,0,1,1.67-2.12,6,6,0,0,1,3.79-1.91,3.81,3.81,0,0,1,2.59.74,3.52,3.52,0,0,1,1,2.31c.15,1,.31,2,.47,2.92s.21,2.17.31,3.69a22,22,0,0,0,.55,3.59c.2.91.47,2.18,1,3.78.65,2.15,1.28,3.79,1.7,5S83.36,75.49,83.73,76.62ZM76.45,58.37a6,6,0,0,0-.69-2.31,1.47,1.47,0,0,0-1.28-.83A2.19,2.19,0,0,0,73,55.9a6.27,6.27,0,0,0-1.26,1.79,14.91,14.91,0,0,0-.94,2.38,12,12,0,0,0-.46,2.78,22.35,22.35,0,0,0,0,2.72,15.54,15.54,0,0,0,.38,2.53c.36,1.49.73,2.63,1,3.43,0,.09,0,.13.08.21.73,2.13,1.75,4.37,2.77,6.85A31.89,31.89,0,0,1,76.42,85c.33,1.77.6,3.37.94,4.73s.82,2.1,1.63,2.09,1.56-.82,2.28-2.34a13.59,13.59,0,0,0,1.29-5.41,20.22,20.22,0,0,0-1-7.2c-.41-1.31-.75-2.24-1-2.83s-.54-1.44-1-2.56-.8-2.18-1.16-3.18a24.11,24.11,0,0,1-1-3.4c-.26-1.29-.46-2.46-.64-3.51S76.59,59.35,76.45,58.37Z"/><path class="cls-2" d="M97.29,94.71c-.91,0-1.16-.8-1-2.28C97.56,84,95,78.09,93.08,72.83a15.37,15.37,0,0,0-2.61-.16,4.58,4.58,0,0,0-1.94.47c.58,1.79,1.79,4.43,2.84,8.47A24.66,24.66,0,0,1,92,91.68a2.49,2.49,0,0,1-.53,1.2,1.22,1.22,0,0,1-1,.56c-1,0,0-4.56-1.54-10.39-3-11.33-6.72-18.46-3.36-29a1.63,1.63,0,0,1,1.48-1.13,1.37,1.37,0,0,1,.91.3,1.06,1.06,0,0,1,.46.66,18.31,18.31,0,0,0-1.89,4.39c-1.12,4.59-.77,6.57.34,10.54.15.72.24,1.09.44,1.81a7.81,7.81,0,0,0,.47,1.24c1.86-.24,2.8-.35,4.77-.55-1.88-6.37-2.89-9.24.9-17,.31-.63.48-.94.85-1.59,1.4,0,1.8.68,1.45,2a47.49,47.49,0,0,0-1.45,4.69c-.56,2.41-.62,7.14,1.79,14.38s3.6,13.7,3.08,18.52a3.37,3.37,0,0,1-.67,1.65A1.59,1.59,0,0,1,97.29,94.71Z"/><path class="cls-2" d="M114.22,76.53c.16,2.66.28,4,.47,6.94,0,.11,0,.16,0,.26a20.55,20.55,0,0,0,0,3.49,10,10,0,0,1-.38,3.73,8.72,8.72,0,0,1-1.85,3.28,3.78,3.78,0,0,1-2.82,1.47,3.33,3.33,0,0,1-2.57-1.26,10.08,10.08,0,0,1-1.78-3.14c-.48-1.25-.94-2.72-1.45-4.35s-1-3.16-1.48-4.61-1-2.94-1.46-4.4c-.73-2.23-1.29-3.9-1.59-5.09s-.54-2.2-.75-3-.38-1.61-.5-2.28c-.06-.34-.12-.72-.17-1.14a8.07,8.07,0,0,1-.06-1.32,18.58,18.58,0,0,1,.24-2.62,16.25,16.25,0,0,1,.66-2.57,14.82,14.82,0,0,1,1.13-2.53,14.51,14.51,0,0,1,1.56-2.22,12.08,12.08,0,0,1,1.93-1.88,6.76,6.76,0,0,1,3.9-1.68,4.56,4.56,0,0,1,2.65.63,3.44,3.44,0,0,1,1.31,2.05c.27.92.53,1.81.77,2.66a15.13,15.13,0,0,1,.37,3.54c0,1.49.13,2.69.21,3.6s.16,2.25.4,4c.32,2.33.6,4.15.78,5.47S114.06,75.31,114.22,76.53Zm-5.4-19.11A4.66,4.66,0,0,0,108,55.3a1.7,1.7,0,0,0-1.41-.74,2.72,2.72,0,0,0-1.59.59,7.4,7.4,0,0,0-1.49,1.62,18.31,18.31,0,0,0-1.3,2.19,13.41,13.41,0,0,0-1,2.6c-.24,1-.42,1.84-.53,2.61a9.68,9.68,0,0,0-.09,2.5c.16,1.51.39,2.7.55,3.55l.05.22a59.23,59.23,0,0,0,2.24,7.29c.94,2.67,1.79,5.14,2.42,7.08a43.44,43.44,0,0,0,1.91,5.11c.68,1.45,1.38,2.21,2.19,2.24s1.33-.77,1.74-2.29a18.65,18.65,0,0,0,.54-5.55,69.42,69.42,0,0,0-.65-7.72c-.21-1.41-.38-2.42-.49-3.07s-.29-1.57-.51-2.79-.46-2.37-.7-3.44a22.57,22.57,0,0,1-.46-3.53c-.06-1.28-.14-2.44-.27-3.46S109,58.33,108.82,57.42Z"/><path class="cls-2" d="M121.47,72.86c.07.69.1,1,.17,1.72,0,.1,0,.14,0,.24.36,3.14.87,7.9,1.13,14.6,0,.58,0,.88,0,1.47,1.66.09,2.5.13,4.18.24.79.59,1.19,1.13,1.19,1.61a1.81,1.81,0,0,1-.4,1.2,1.1,1.1,0,0,1-.83.45,3.14,3.14,0,0,1-1-.22,4.73,4.73,0,0,1-1,.08l-1.74-.13a1.67,1.67,0,0,1-1.39.69,2,2,0,0,1-2-2c.13-1,.18-1.57.28-2.6-.19-4.48-1.1-11-2.23-19a47.34,47.34,0,0,1,.8-18.26,1.34,1.34,0,0,1,.62-.83,1.93,1.93,0,0,1,1.08-.32,1.32,1.32,0,0,1,1.31,1.58C120.6,61.35,120.74,65.08,121.47,72.86Z"/></svg>
