<svg id="Layer_1" data-name="Layer 1" xmlns="http://www.w3.org/2000/svg" viewBox="0 0 150 150"><defs><style>.cls-1{fill:#307753;}.cls-2{fill:#fcfcfc;}</style></defs><title>vegetarian</title><path class="cls-1" d="M13.7,89.33c-.26-.45-.52-.92-.76-1.39A3.12,3.12,0,0,0,13.7,89.33Z"/><path class="cls-1" d="M47.73,113.88l-3-1.28A4.9,4.9,0,0,0,47.73,113.88Z"/><path class="cls-1" d="M12.47,78.71A29.35,29.35,0,0,1,11,74.16,8.31,8.31,0,0,0,12.47,78.71Z"/><path class="cls-1" d="M27.05,50.42a6.91,6.91,0,0,0-2.73,3l.11-.11C25.27,52.27,26.26,51.33,27.05,50.42Z"/><path class="cls-1" d="M11,74.16c-.12-1.88,0-3.78-.68-5.83A24.78,24.78,0,0,0,11,74.16Z"/><path class="cls-1" d="M37.89,113.76l1.69.71-.9-.47A4.56,4.56,0,0,1,37.89,113.76Z"/><path class="cls-1" d="M42.85,115.85l-3.27-1.38C40.66,115,41.75,115.42,42.85,115.85Z"/><path class="cls-1" d="M23.29,56.08c.13-.39.26-.79.4-1.18A1,1,0,0,0,23.29,56.08Z"/><path class="cls-1" d="M9.13,92.29l-1-1.52A2.63,2.63,0,0,0,9.13,92.29Z"/><path class="cls-1" d="M43,115.9h0l-.12,0Z"/><path class="cls-1" d="M34.08,108.13l-1.24-.53Z"/><path class="cls-1" d="M25,52.78a7.19,7.19,0,0,0-.57.52l-.17.22a13.81,13.81,0,0,0-.57,1.38C24.61,54.18,26.45,54,25,52.78Z"/><path class="cls-1" d="M24.41,48.78Z"/><path class="cls-1" d="M139.77,75.39c0,.5.08,1,.11,1.5A2.56,2.56,0,0,0,139.77,75.39Z"/><path class="cls-1" d="M116.87,43.62l2.49,2A4.1,4.1,0,0,0,116.87,43.62Z"/><path class="cls-1" d="M135.89,85.71a27.47,27.47,0,0,1-.7,4.66A7.45,7.45,0,0,0,135.89,85.71Z"/><path class="cls-1" d="M135.19,90.37c-.79,1.79-1.88,3.55-2.13,5.65A25.3,25.3,0,0,0,135.19,90.37Z"/><path class="cls-1" d="M126.86,46.24l-1.39-1.11.7.68A4.25,4.25,0,0,1,126.86,46.24Z"/><path class="cls-1" d="M122.8,43l.84.67C123.36,43.45,123.09,43.22,122.8,43Z"/><path class="cls-1" d="M123.64,43.67c.62.48,1.25,1,1.83,1.46Z"/><path class="cls-1" d="M145.87,73.77l.24,1.68A2.08,2.08,0,0,0,145.87,73.77Z"/><path class="cls-1" d="M122.71,42.93h0l.09.07Z"/><path class="cls-1" d="M128,52.51l1,.81Z"/><path class="cls-1" d="M140.46,59.21c-.11,1,1.16,3,1,4-2.1-6.79-9.91-12.25-15.33-17.43-1.49-.78-3.66-1.21-3.46-2.88C106,30.5,79.45,27,57.18,33.46a70.11,70.11,0,0,1,35.19-2.94C86.49,29,79,28.4,73,27.9l1.61-.85C58,26.63,45.18,32.45,33.75,39.36c1.73-1.82,3.35-2.67,5.08-4.49a24.4,24.4,0,0,0-4.49,2.23c.94-1.14,1.83-2.27,2.64-3.42A82.17,82.17,0,0,0,25.44,46.83l.27-.19c-2,2.36-1,5.19-4.45,7.78a42.36,42.36,0,0,1,4.18-7.59c-2.24,1.5-3.85,4.61-4.51,6.65l-1,1.18c2.76-8.5,7.55-15.34,15.38-21.69-10.21,7.76-16.71,17.9-18.47,29.24-1-6.86,4.14-12.75,7.57-19.35A36.65,36.65,0,0,0,13.29,66.75c.54,2,1.1,4.09.07,6.08a39.86,39.86,0,0,1-.07-6.08,14.29,14.29,0,0,1-.57-3,59.81,59.81,0,0,0,3.62,21.6c-1-2.84-2-5.68-4.36-8.28L12.65,79c-.07-.09-.12-.18-.18-.26A54.41,54.41,0,0,0,19.7,90.8a3.67,3.67,0,0,1-2.35-2.61c.33,1,.66,1.89,1,2.84-.34-1-2.36-2.6-2.7-3.55C15,89.6,19.7,90.8,19,92.92L18.68,92l1,2.83c-1-2.83-4.72-5.21-5.72-8,.34.94.67,1.89,1,2.83a1.43,1.43,0,0,1-1.26-.27c4.38,7.66,10.94,14.06,20.83,19l1.69.71c-3.71-2.37-7.43-4.74-10.13-8.29,3.72,2.37,8.8,4.51,11.16,7.11l-3.39-1.42c5.41,3.08,10.82,6.17,16.92,7.13a14.89,14.89,0,0,1-3.05.32l2,.86A57.05,57.05,0,0,1,9.55,86.52c.34.94.34.94.67,1.89-4.05-3.32-2.67-7.57-6.39-9.94,1.67,4.73,2,9.69,6.37,14a1.55,1.55,0,0,1-1.07-.14c3,4.76,6,8.8,11.18,12.45-.34-.95-2.36-2.61-2.7-3.55,4.85,5.89,14.06,9.2,21.07,12.81,1.64.38,3.71.28,4.29,1.89,20.07,7.78,44.65,4.91,61.08-6.44-7.84,6.35-18,10.11-29.23,11,5.77,0,12.56-1.15,18-2.08l-1,1.18c.79-.19,1.55-.4,2.31-.61-1.74.94-3.43,1.91-5,2.91,3.18-1.37,6.37-2.85,9.47-4.44a45.44,45.44,0,0,0,10-5.48,21.37,21.37,0,0,0,6.51-4.64l1.62-.85c-6.93,7.3-15.13,12.52-26.21,16.51,14.2-4.71,25.74-12.6,33-22.83-2.31,6.7-10.39,11-17.09,16.3,10.41-4.73,18.08-11.64,22.88-19.68.43-2,.85-4.13,2.87-5.74a42.69,42.69,0,0,1-2.87,5.74,13.67,13.67,0,0,1-.86,3,58.28,58.28,0,0,0,6.74-21.26c-.35,2.93-.7,5.86.45,8.91.12-1,.12-1,.23-2,0,.1,0,.19.06.29a42.25,42.25,0,0,0-1.55-13.22,2.79,2.79,0,0,1,1.15,3.05l.35-2.93c-.11,1,1.15,3,1,4,1.73-1.82-2.54-4.15-.81-6l-.11,1c.11-1,.23-2,.35-2.93-.35,2.93,2.3,6.11,1.95,9,.12-1,.23-1.95.35-2.92a1.35,1.35,0,0,1,1.16.57c-.77-8.33-4.38-16-12.11-23.17l-1.38-1.11c2.65,3.18,5.3,6.36,6.34,10.39-2.65-3.18-6.81-6.48-8-9.54l2.77,2.21c-4-4.29-8.07-8.57-13.84-11a16.53,16.53,0,0,1,3.28.47l-1.66-1.32c18.68,8.47,26.06,22.89,27.43,36.8l.24-1.95c2.53,4.15-.93,7.8,1.72,11,.58-4.88,2.66-9.63.24-14.76a1.5,1.5,0,0,1,1,.4C145.1,68.52,144,64,140.46,59.21Zm-21.4,39.63,0,0v0ZM22.64,65.55l.09.12c0,.08-.05.16-.08.24l0,0C22.61,65.78,22.63,65.67,22.64,65.55Zm5.13,9.64a20.39,20.39,0,0,1-1-2.06A6.08,6.08,0,0,1,27.77,75.19Zm-6.86-17.7c1-1.17.69-2.12,1.71-3.3l.32.92,0-.06c.75-4.24,3.18-8,6-11.55a11.79,11.79,0,0,0-.55,2.31c3.23-1.69,3.69-5.6,8.31-6.19-5.2,5.47-10.27,10-11.09,16.8.12-1-1.38-1.1-1.38-1.1-.23,2-.58,4.87-.81,6.82a6.08,6.08,0,0,0,0-1.13c.18-.95.36-1.93.49-3l-.8.91c-.07-.43-.15-.86-.22-1.28,0,.35-.09.69-.15,1a4.63,4.63,0,0,1,0-2.28c0,.4.09.82.16,1.25a7.8,7.8,0,0,0-.05-1.67,7.94,7.94,0,0,1,1.37-2.41l.06-.11A7.9,7.9,0,0,0,23,55.05a.29.29,0,0,1,0,.09v0c-.05.09-.08.18-.13.27,0-.07,0-.13,0-.19a2.09,2.09,0,0,0,0,.25A10.29,10.29,0,0,0,22,57.3l.25,0a3.55,3.55,0,0,0-.31.23,31.92,31.92,0,0,0-.73,5c-.64-1.8-1.24-3.59.73-5L22,57.3Zm93,50,1.07-1,.22-.08C114.75,106.72,114.31,107.1,113.88,107.47Z"/><path class="cls-2" d="M25.55,61.87c.64-.25,1.73,4.21,3.27,13.51.6,3.64.93,5.61,1,5.89q.24-2,.87-6.51c.86-6.17.61-12,1.3-14.29a1.87,1.87,0,0,1,1.29-1l.75.23c-.06.41-.19,1.57-.38,3.47s-.38,3.62-.56,5.13-.34,3-.5,4.29-.34,2.78-.53,4.28-.37,2.86-.54,4.06-.35,2.32-.52,3.33c-.37,2.12-.67,3.22-.9,3.28a.87.87,0,0,1-.84-.15c-.57-2.17-1.42-6.45-2.53-12.79s-1.83-10.2-2.16-11.67A1.54,1.54,0,0,1,25.55,61.87Z"/><path class="cls-2" d="M39.84,72.49l-.88.05a1,1,0,0,0-.73.33v10.8c1.21-.2,1.87-.27,2-.28,1.35-.1,2,.19,2,.81v.12a1.7,1.7,0,0,1-.83.77,3.91,3.91,0,0,1-1,.36l-1.16.12-1.11.11c-.88.1-1.42,0-1.63-.31a1.17,1.17,0,0,1-.14-.61V64.45a9.18,9.18,0,0,0-.24-1.74A9.17,9.17,0,0,1,35.84,61v-.12a8.65,8.65,0,0,1,.88-1.37c1.06-.27,1.58-.4,2.64-.62a1.92,1.92,0,0,1,1.08.22.87.87,0,0,1,.55.79c0,.69-.54,1.07-1.62,1.17l-1,.08-.38.06c.11,2.3.17,3.44.28,5.74,0,.47,0,1.15-.09,2s-.08,1.56-.08,2l.52-.18a4.9,4.9,0,0,1,1.13-.3,1,1,0,0,1,.73.24.83.83,0,0,1,.32.67,1.25,1.25,0,0,1-.26.76A.89.89,0,0,1,39.84,72.49Z"/><path class="cls-2" d="M51.78,79.08l-1.38,0c-.81-.06-1.22-.41-1.22-1.07s.77-.91,2.29-1a6.88,6.88,0,0,1,1,0,1.22,1.22,0,0,1,.92.64,2.75,2.75,0,0,1,.38,1.51,21.79,21.79,0,0,0,.35,3,21.45,21.45,0,0,1,.36,2.85c0,.86-.29,1.25-.88,1.19a1.28,1.28,0,0,1-1.16-.86v0c-.14,0-.4.15-.79.32a4.51,4.51,0,0,1-2.13.42A4.27,4.27,0,0,1,48,85.8a5.19,5.19,0,0,1-2.5-2.21,10.55,10.55,0,0,1-1.23-3c-.19-1-.32-1.74-.4-2.29s-.14-1.22-.19-2c-.06-.92-.08-2-.08-3.34,0-1,0-1.55,0-2.58a36.84,36.84,0,0,1,.22-4.87c.15-1,.31-1.79.46-2.42a11.43,11.43,0,0,1,.55-1.68A10.12,10.12,0,0,1,45.56,60a4.36,4.36,0,0,1,3.94-2c1.08.06,1.63.44,1.63,1.1a.68.68,0,0,1-.28.58,1,1,0,0,1-.66.18l-1-.22a2.24,2.24,0,0,0-2.1,1.52,11.13,11.13,0,0,0-1,3.27c-.15,1-.25,1.89-.33,2.52s-.14,1.35-.17,2.14c0,1.1-.07,2.22-.05,3.32l0,2.18a26.24,26.24,0,0,0,.3,4.78,16,16,0,0,0,.63,2.27A5.49,5.49,0,0,0,47.16,83a6.07,6.07,0,0,0,2.58,1.38,2.86,2.86,0,0,0,2.62-1.27A10.41,10.41,0,0,0,51.78,79.08Z"/><path class="cls-2" d="M60.36,73.65l-.88-.18a.8.8,0,0,0-.73.15V84.51c1.21.11,1.87.19,2,.21,1.35.23,2,.66,2,1.28v.12a1.26,1.26,0,0,1-.83.6,3,3,0,0,1-1,.11l-1.16-.15-1.11-.18c-.88-.13-1.42-.38-1.63-.75a1.43,1.43,0,0,1-.14-.66V64.61a10.39,10.39,0,0,0-.24-1.82A10.56,10.56,0,0,1,56.36,61v-.12a5.73,5.73,0,0,1,.88-1.13l2.64.06a2.53,2.53,0,0,1,1.08.49,1.17,1.17,0,0,1,.55.92c0,.7-.54,1-1.62.8l-1-.18a2.31,2.31,0,0,0-.38,0c.11,2.34.17,3.52.28,5.86,0,.47,0,1.15-.09,2s-.09,1.54-.09,2l.52-.05a4.83,4.83,0,0,1,1.14,0A1.26,1.26,0,0,1,61,72a1.1,1.1,0,0,1,.32.76,1,1,0,0,1-.26.7A.73.73,0,0,1,60.36,73.65Z"/><path class="cls-2" d="M68.77,67.58c0,1.82,0,2.73-.07,4.55.12,3.28.19,4.93.31,8.21.12,2.57.18,3.85.29,6.43,0,1.15-.34,1.66-1,1.52a1.17,1.17,0,0,1-.86-.73,3,3,0,0,1-.28-1.28c.11-2.24.16-3.36.28-5.6,0-1.22-.09-3.08-.25-5.56s-.24-4.34-.24-5.56l0-3.09a10.87,10.87,0,0,0-.33-3.36L64.73,63a1.57,1.57,0,0,1-.81-.41,1,1,0,0,1-.35-.75c0-.29.29-.47.85-.57a8.57,8.57,0,0,1,2.08-.07,29.85,29.85,0,0,1,3.58.44,1.43,1.43,0,0,1,.79.44,1.07,1.07,0,0,1,.36.78.7.7,0,0,1-.31.63,1.09,1.09,0,0,1-.77.1l-1.26-.32-.37,0A36.39,36.39,0,0,1,68.77,67.58Z"/><path class="cls-2" d="M79.82,90.39c-.72-.14-1.09-.52-1.09-1.14V84.62a6.26,6.26,0,0,0-1.81-1,24.46,24.46,0,0,0-2.33-.78,5.07,5.07,0,0,0-.6,1.68c-.15.75-.32,1.51-.48,2.27a5,5,0,0,1-.67,1.75c-.93-.19-1.45-.53-1.56-1,.32-.39.85-2.65,1.58-6.76s1.32-7.33,1.79-9.65a43.27,43.27,0,0,1,1.52-5.78q.81-2.3,1.56-2.16c.49.1,1,.33,1.14.53.2.48.23,3.18.69,7s.7,6.27.7,7.36.12,2.94.37,5.53.37,4.53.37,5.8C81,90.22,80.61,90.55,79.82,90.39Zm-1.49-11.9c-.21-2.15-.39-4.19-.56-6.12s-.25-3.11-.25-3.51a4.43,4.43,0,0,1,0-.68q-.56.46-1.61,6a71.86,71.86,0,0,0-1.12,7.12,12.13,12.13,0,0,0,2.47.9,6.37,6.37,0,0,0,1.42.17C78.66,81.94,78.54,80.63,78.33,78.49Z"/><path class="cls-2" d="M83.41,90.05c.06-8.35.08-12.53.14-20.88V64.78a.75.75,0,0,1,.17-.56,1.45,1.45,0,0,1,.91,0,4.11,4.11,0,0,1,1.49.59,4.59,4.59,0,0,1,1.28,1.15A8.41,8.41,0,0,1,89,70.78a10.35,10.35,0,0,1-.87,3.87c-.07.15-.21.47-.42,1s-.35.79-.36.87c-.26,1.4.46,4.13,1.33,7.08.31,1,.73,2.36,1.29,4.1s.9,2.82,1,3.28V91c0,.8-.1,1.26-.28,1.37a.88.88,0,0,1-.59.12c-.44-.06-.87-.44-1.28-1.14v-.12A50,50,0,0,0,86.6,81.12c-.62-2.1-1.06-3.65-1.3-4.66V90.52a1.33,1.33,0,0,1-.19.8.64.64,0,0,1-.69.18,1.17,1.17,0,0,1-.76-.42,1.24,1.24,0,0,1-.25-.76Zm2-24.09c-.08,2.9-.12,4.35-.19,7.25,0,.73,0,1.27,0,1.64a7.47,7.47,0,0,0,1.2-1.19c.22-1.2.33-1.79.55-3a2.2,2.2,0,0,0,.06-.55A8.42,8.42,0,0,0,86.67,68C86.35,66.83,85.91,66.15,85.37,66Z"/><path class="cls-2" d="M96.77,67.62l-.62-.05a.7.7,0,0,0-.51.11.74.74,0,0,0-.17.58q0,3.49.44,10.5c.28,4.68.43,8.18.43,10.51v1.38a5.93,5.93,0,0,1,.73,0c1,.06,1.47.5,1.47,1.34v.21l-.88.57c-1,0-1.45,0-2.41-.09-2-.17-3.07-.66-3.07-1.37s.36-.81,1.07-.74l.75.13c.35,0,.52-.23.52-.79q0-2.76-.33-8.31t-.33-8.3c0-1.46,0-2.19.07-3.65a19.29,19.29,0,0,0-.09-2,2.5,2.5,0,0,1-.83.08.83.83,0,0,1-.83-.94.79.79,0,0,1,.54-.7,3.5,3.5,0,0,1,1.33-.34,16.41,16.41,0,0,1,2.21-.1,1.55,1.55,0,0,1,1,.35.92.92,0,0,1,.31.69,1,1,0,0,1-.23.67A.68.68,0,0,1,96.77,67.62Z"/><path class="cls-2" d="M108.18,92.69c-.73.08-1.1-.21-1.1-.83V87.17a5.22,5.22,0,0,0-1.81-.47c-.87-.11-1.65-.19-2.33-.23a6.48,6.48,0,0,0-.6,1.84q-.23,1.18-.48,2.4a6.19,6.19,0,0,1-.67,1.91c-.92,0-1.44-.27-1.56-.75.33-.46.85-2.83,1.58-7.14S102.54,77,103,74.59a54.44,54.44,0,0,1,1.52-6.21c.54-1.69,1.06-2.56,1.56-2.59s1.06.06,1.14.21c.22.41.23,3.15.7,6.87s.69,6.14.69,7.25.12,2.93.37,5.47.37,4.46.37,5.75A1.2,1.2,0,0,1,108.18,92.69Zm-1.49-11.61q-.31-3.17-.57-6c-.17-1.92-.25-3.07-.25-3.48s0-.63,0-.69c-.37.41-.91,2.59-1.6,6.53s-1.08,6.42-1.12,7.46a8.2,8.2,0,0,0,2.47.3,6.2,6.2,0,0,0,1.41-.21C107,84.48,106.89,83.19,106.69,81.08Z"/><path class="cls-2" d="M111.57,73.36l.25-6.66v-.23c0-1.19.26-1.84.78-1.94s1.1.89,1.9,2.93A153.65,153.65,0,0,1,119.74,86l0,.17c.06-5.07.08-7.6.14-12.66V62.85a1.76,1.76,0,0,1,1.16-1.34c.64-.24,1,.09,1,1v.21a3,3,0,0,0-.21,1.14c-.09,5.39-.13,8.09-.22,13.47V88.44a2.86,2.86,0,0,1-.3,1.19,1.38,1.38,0,0,1-.72.8c-.5.18-1.47-2-2.91-6.48s-2.88-9.5-4.29-14.9V80.89c0,1.15.09,2.85.26,5.09s.25,3.94.25,5.09a.84.84,0,0,1-.4.64,2.51,2.51,0,0,1-1,.42c-.41.08-.62-.08-.62-.45.07-1.05.1-1.57.17-2.62,0-1.25-.07-3.25-.22-6s-.23-4.46-.23-5.08Z"/></svg>
