<svg id="Layer_1" data-name="Layer 1" xmlns="http://www.w3.org/2000/svg" viewBox="0 0 150 150"><defs><style>.cls-1{fill:#f78631;}.cls-2{fill:#f9f9f9;}.cls-3{fill:#f4f1ed;}</style></defs><title>discount</title><path class="cls-1" d="M133.26,71.26c.06.56.11,1.14.15,1.71A3.84,3.84,0,0,0,133.26,71.26Z"/><path class="cls-1" d="M112.94,37l2.17,2A3.46,3.46,0,0,0,112.94,37Z"/><path class="cls-1" d="M130.35,83.45a42.71,42.71,0,0,1-.43,5.4A11.6,11.6,0,0,0,130.35,83.45Z"/><path class="cls-1" d="M107.12,112.37a9,9,0,0,0,3.49-2.81l-.14.09C109.35,110.64,108.14,111.51,107.12,112.37Z"/><path class="cls-1" d="M129.92,88.85a30.49,30.49,0,0,0-1.6,6.68A38.36,38.36,0,0,0,129.92,88.85Z"/><path class="cls-1" d="M121.43,39l-1.2-1.13.61.71A3.14,3.14,0,0,1,121.43,39Z"/><path class="cls-1" d="M117.91,35.7l2.32,2.2C119.48,37.13,118.7,36.4,117.91,35.7Z"/><path class="cls-1" d="M112.5,106.75c-.26.42-.52.84-.79,1.26A1.47,1.47,0,0,0,112.5,106.75Z"/><path class="cls-1" d="M138.34,68.84c.08.62.17,1.25.25,1.9A3,3,0,0,0,138.34,68.84Z"/><path class="cls-1" d="M117.83,35.63h0l.08.07Z"/><path class="cls-1" d="M122.63,46.12l.88.83Z"/><path class="cls-1" d="M109.78,110.13c.25-.14.46-.32.69-.48l.22-.2q.54-.7,1-1.44C110.64,108.63,109,108.51,109.78,110.13Z"/><path class="cls-1" d="M108.79,114.74Z"/><path class="cls-1" d="M18.71,62.1c.15-.57.3-1.14.47-1.71A4,4,0,0,0,18.71,62.1Z"/><path class="cls-1" d="M26.68,102.33l-1.42-2.72A3.51,3.51,0,0,0,26.68,102.33Z"/><path class="cls-1" d="M25.94,51.26a43.41,43.41,0,0,1,2.35-5.1A11.85,11.85,0,0,0,25.94,51.26Z"/><path class="cls-1" d="M28.29,46.16a31.22,31.22,0,0,0,4-5.94A39.92,39.92,0,0,0,28.29,46.16Z"/><path class="cls-1" d="M19,97.42l.79,1.51c-.11-.3-.23-.6-.35-.9A3.26,3.26,0,0,1,19,97.42Z"/><path class="cls-1" d="M21.3,101.85l-.47-.91C21,101.24,21.13,101.55,21.3,101.85Z"/><path class="cls-1" d="M20.83,100.94c-.36-.67-.73-1.32-1-2C20.33,100,20.5,100.32,20.83,100.94Z"/><path class="cls-1" d="M12.81,62.71c.14-.63.28-1.27.43-1.93A3,3,0,0,0,12.81,62.71Z"/><path class="cls-1" d="M21.36,102h0l-.06-.1Z"/><path class="cls-1" d="M20.32,90.13,19.75,89Z"/><path class="cls-1" d="M12.05,80.16c.47-1.08.14-3.66.61-4.74-.72,8,4,15.72,6.77,22.61,1,1.18,2.72,2.08,1.93,3.92,9.88,17.28,31.52,26.49,53.28,23.56A49.46,49.46,0,0,1,43,121.89c4.55,2.82,10.81,5,15.83,6.76l-1.72.64c14.25,3.74,27.54-.28,40-5.8-2.19,1.71-3.91,2.34-6.09,4.05a22.39,22.39,0,0,0,4.72-1.62c-1.23,1.09-2.43,2.19-3.56,3.32a108.55,108.55,0,0,0,14.93-12.51,3,3,0,0,1-.31.16c2.66-2.25,2.85-5.63,6.78-7.87a63.24,63.24,0,0,1-6.47,7.71c2.5-1.24,5.06-4.42,6.4-6.58L114.9,109a62.5,62.5,0,0,1-21.46,21.36,65.39,65.39,0,0,0,27-29.24c-1.71,7.9-8.36,13.52-13.8,20.27a55.8,55.8,0,0,0,18.56-24.68c.28-2.37.57-4.82,2.21-6.85a62.83,62.83,0,0,1-2.21,6.85,21.42,21.42,0,0,1-.63,3.48,89.49,89.49,0,0,0,4.94-25c-.19,3.39-.38,6.78.69,10.17.06-1.13.06-1.13.13-2.26,0,.11,0,.22,0,.33a64.15,64.15,0,0,0-1.74-15,3.72,3.72,0,0,1,1.07,3.39c.06-1.13.13-2.25.19-3.38-.06,1.13,1.07,3.39,1,4.52,1.39-2.25-2.27-4.53-.88-6.78l-.07,1.13c.07-1.13.13-2.26.2-3.39-.2,3.39,2.14,6.79,2,10.17.06-1.13.13-2.25.19-3.38a1,1,0,0,1,1,.55,42.93,42.93,0,0,0-10.95-25.45l-1.2-1.13c2.33,3.4,4.67,6.8,5.68,11.32-2.34-3.4-5.94-6.81-7-10.2l2.4,2.27c-3.54-4.53-7.07-9.07-12-11.35a10.34,10.34,0,0,1,2.76.24l-1.43-1.36c16,8,22.67,23.82,24.3,39.64.06-1.13.06-1.13.13-2.26,2.27,4.53-.52,9,1.82,12.43.32-5.64,1.9-11.28-.3-16.94a1.06,1.06,0,0,1,.88.37c-.83-6-1.9-11.07-5-16.2-.06,1.13,1.07,3.39,1,4.52-2-7.58-8.74-13.12-13.47-18.55-1.28-.76-3.12-1-3-3-14.5-12.69-36.89-14.31-55.39-4.78a45.92,45.92,0,0,1,29.48-6.64C86.92,23.06,80.6,23,75.54,23l1.33-1.12c-.76.06-1.49.14-2.23.24,1.86-.73,3.69-1.47,5.43-2.29-3.27.91-6.59,1.94-9.87,3.13a44.11,44.11,0,0,0-10.71,4.19,23.12,23.12,0,0,0-7.39,3.93l-1.72.63a67.23,67.23,0,0,1,28.91-13.4A70.05,70.05,0,0,0,42.11,37.48C46.62,30.4,55.22,27.22,63,22.53A59.3,59.3,0,0,0,35.81,40.14c-1.12,2.2-2.28,4.48-4.63,5.89a65.89,65.89,0,0,1,4.63-5.89A23.23,23.23,0,0,1,37.67,37a92.33,92.33,0,0,0-13.8,22.57c1.4-3.22,2.8-6.44,2.94-10.1l-.93,2.15.06-.34a64.94,64.94,0,0,0-3.61,15.17,3.72,3.72,0,0,1,.15-3.66c-.47,1.08-.94,2.15-1.4,3.23.46-1.08.14-3.66.61-4.74-2.19,1.71.64,5.17-1.54,6.88l.46-1.07c-.46,1.07-.93,2.15-1.4,3.22,1.4-3.22.29-7.32,1.69-10.54C20.43,60.83,20,61.9,19.5,63a1,1,0,0,1-.79-.87,43.22,43.22,0,0,0,1.82,28.44c.2.38.4.75.79,1.51-1.11-4.1-2.22-8.19-1.61-12.93,1.11,4.1,3.48,8.63,3.33,12.29l-1.57-3c1.89,5.61,3.79,11.22,7.87,15.12a11,11,0,0,1-2.66-1.18c.31.61.63,1.21.94,1.81-13-13.2-14-30.87-10-46.78l-.94,2.15c-.64-5.17,3.73-8.59,2.62-12.69-2.33,5.37-5.91,10.3-5.73,16.55a1.1,1.1,0,0,1-.75-.66C11.52,68.77,10.75,74.11,12.05,80.16Zm33.4-40.35-.05.06,0,0Zm71.16,56.42,0-.15.15-.25,0,0C116.72,96,116.66,96.11,116.61,96.23Zm-.84-11.84c.06.84.1,1.68.09,2.51A7.62,7.62,0,0,1,115.77,84.39Zm-.67,21.25c-1.33,1.12-1.4,2.25-2.73,3.37l.07-1.09,0,0c-2.23,4.63-5.75,8.35-9.55,11.8a18,18,0,0,0,1.35-2.49c-3.44,1.28-5.3,5.57-9.53,5.33,6.56-5.13,12.65-9.18,15.91-16.7-.47,1.07.78,1.51.78,1.51.94-2.15,2.33-5.37,3.26-7.52a9.61,9.61,0,0,0-.42,1.28c-.52,1-1,2.1-1.56,3.31l1-.86c-.1.5-.19,1-.29,1.48.16-.38.34-.76.52-1.13a7.4,7.4,0,0,1-.85,2.58c.13-.46.23-1,.33-1.45a12.16,12.16,0,0,0-.58,1.89,12,12,0,0,1-2.1,2.45l-.08.11a10.86,10.86,0,0,0,1.78-1.59l0-.09v0l.21-.28c0,.07,0,.14,0,.22l.09-.28a15.23,15.23,0,0,0,1.37-2h-.24c.13-.06.23-.13.35-.19a52.36,52.36,0,0,0,2.5-5.44c-.12,2.14-.27,4.27-2.5,5.44l-.11.19ZM53.17,31.13c-.44.32-.88.64-1.32,1l-.22,0C52.14,31.8,52.66,31.47,53.17,31.13Z"/><path class="cls-2" d="M38.39,69.88l.15.73a17.12,17.12,0,0,1-.88,5.9,20,20,0,0,1-2.61,6,5.48,5.48,0,0,1-2.15,1.93,2.74,2.74,0,0,1-1.35.3,1,1,0,0,1-.94-.61c.33-.76.06-2.17-.45-4.42-.3-1.33-.77-3.29-1.24-6a43.83,43.83,0,0,1-.63-6.3c0-1.72,0-2.58,0-4.3a10.87,10.87,0,0,0-.54-2.7,13.38,13.38,0,0,1-.6-2.39c-.08-.89.85-1.46,2.83-1.74l.58-.09c2.63-.37,4.73.82,6.12,3.58a21,21,0,0,1,1.68,8.1c0,.68,0,1,.09,1.68A.71.71,0,0,0,38.39,69.88ZM32,79.08a19.51,19.51,0,0,0,.9,3.19,11.8,11.8,0,0,0,1.84-3.06,17,17,0,0,0,1.11-3.55,32.13,32.13,0,0,0,.5-7.21A16.28,16.28,0,0,0,35,61.87a5.75,5.75,0,0,0-3-3,4.81,4.81,0,0,0-2.35-.18v0c.18,2.32.39,5.88.86,10.47A91.42,91.42,0,0,0,32,79.08Z"/><path class="cls-2" d="M44.59,56.3l-.68.08a.85.85,0,0,0-.55.23.89.89,0,0,0-.11.66c.23,2.49.59,6.31,1.22,10.75s1.16,7.07,1.53,8.64c.08.37.13.55.23.9.26-.1.52-.19.79-.27,1.07-.3,1.67-.19,1.83.26a.56.56,0,0,0,0,.12c-.34.24-.5.37-.83.62-1,.36-1.53.54-2.55.92-2.18.76-3.36,1-3.54.47s.18-.72,1-1l.81-.22a.52.52,0,0,0,.4-.73,63,63,0,0,1-1.38-6.59A79.74,79.74,0,0,1,41.88,63c-.06-1.54-.09-2.32-.18-3.89A16.93,16.93,0,0,0,41.42,57a2.86,2.86,0,0,1-.89.29.77.77,0,0,1-1-.78,1,1,0,0,1,.5-.9,4.51,4.51,0,0,1,1.39-.69,15.56,15.56,0,0,1,2.37-.62,1.69,1.69,0,0,1,1.16.15.93.93,0,0,1,.43.68,1.18,1.18,0,0,1-.17.76A.84.84,0,0,1,44.59,56.3Z"/><path class="cls-2" d="M50.21,77.46c-.12-.32.11-.59.69-.75a6.85,6.85,0,0,1,1.19-.17,6.57,6.57,0,0,0,1.27-.21,2.6,2.6,0,0,0,1-.58,2.67,2.67,0,0,0,.76-1,4.11,4.11,0,0,0,.37-2.16,6.25,6.25,0,0,0-.87-2.24A21.54,21.54,0,0,0,53,67.85c-.63-.81-1.27-1.66-1.91-2.54a12.94,12.94,0,0,1-2.5-6.41A6.31,6.31,0,0,1,50,54a3.59,3.59,0,0,1,2.28-1.23,2.64,2.64,0,0,1,1.4.19,2.06,2.06,0,0,1,1.05.88c-.22.36-.33.55-.56.91a2.61,2.61,0,0,1-1.55-.16,1.94,1.94,0,0,0-1.17.84,4.24,4.24,0,0,0-.69,2.85,11.86,11.86,0,0,0,2,5.48c.49.68,1,1.42,1.57,2.17s1.11,1.45,1.61,2.09a9.67,9.67,0,0,1,2,4.39,3.3,3.3,0,0,1-.83,2.69,5.3,5.3,0,0,1-1.46,1.11,10.76,10.76,0,0,1-2.23.93,11.61,11.61,0,0,1-2.23.5C50.58,77.65,50.26,77.6,50.21,77.46Z"/><path class="cls-2" d="M61.16,62.16c0,1-.06,1.49-.1,2.43,0,.32,0,.48.08.79a25.8,25.8,0,0,0,.7,4.48,13,13,0,0,0,.63,1.54,2.86,2.86,0,0,0,.7.95,3.68,3.68,0,0,0,.92.55,4.68,4.68,0,0,0,2.67.09,7,7,0,0,0,1.63-.54,6.29,6.29,0,0,1,1.48-.52A2.34,2.34,0,0,1,71,72c.15.15-.63.85-2.09,1.25-.73.2-1.52.38-2.39.54a15.82,15.82,0,0,1-2.24.31A5.93,5.93,0,0,1,62.67,74a3,3,0,0,1-1.25-.62,4,4,0,0,1-.94-1.14,8.08,8.08,0,0,1-.63-1.72,31.68,31.68,0,0,1-.75-4.57c-.14-1.55-.21-2.38-.37-4.09a19.41,19.41,0,0,1-.08-3.42,6.8,6.8,0,0,1-.23-1.16,4.69,4.69,0,0,1,1.34-4,7,7,0,0,1,4.19-2,3.54,3.54,0,0,1,1.88.26,1.52,1.52,0,0,1,1.06,1.24.74.74,0,0,1-.23.68,2,2,0,0,1-1.06.37,1.12,1.12,0,0,1-1.11-.32v0l-.53.07V53.5a3.35,3.35,0,0,0-2.89,1.81,9.4,9.4,0,0,0-.28,4.4C60.93,60.71,61,61.21,61.16,62.16Z"/><path class="cls-2" d="M82.3,65.36c.07,1.47.09,2.13.1,3.24v.09a3,3,0,0,0-.11,1.22A1.34,1.34,0,0,1,82,71a3.38,3.38,0,0,1-1.32.77,8.47,8.47,0,0,1-2,.4,11.12,11.12,0,0,1-2,0,4.41,4.41,0,0,1-1.53-.36A3.42,3.42,0,0,1,74,70.89a6,6,0,0,1-.9-1.43,13.27,13.27,0,0,1-.65-1.89,21.91,21.91,0,0,1-.61-2.88c-.08-.74-.17-1.41-.26-2s-.17-1.08-.24-1.54c0-.23-.06-.49-.1-.78s-.08-.61-.12-.94c-.08-.69-.13-1.33-.18-1.91s-.06-1.19-.07-1.87a16.58,16.58,0,0,1,.08-1.82,9.83,9.83,0,0,1,.31-1.6,5.06,5.06,0,0,1,.59-1.36,2.81,2.81,0,0,1,2-1.39,4.48,4.48,0,0,1,2.16.15,3.71,3.71,0,0,1,1.65,1.22c.49.59.92,1.18,1.31,1.75A9.86,9.86,0,0,1,80,55.07c.33,1,.6,1.88.8,2.5a24.64,24.64,0,0,1,.62,2.68c.29,1.52.48,2.62.6,3.4S82.2,64.7,82.3,65.36ZM77,53.24a4.14,4.14,0,0,0-1.18-1.39,1.73,1.73,0,0,0-1.21-.38,1.25,1.25,0,0,0-.88.53,3.26,3.26,0,0,0-.48,1.2A14.58,14.58,0,0,0,73,54.8a14.19,14.19,0,0,0-.06,1.9c0,.71,0,1.35.07,1.91s.08,1.15.14,1.78c.11,1,.2,1.83.26,2.39l0,.14a23.35,23.35,0,0,0,1,4.26A13.17,13.17,0,0,0,75.62,70,3.52,3.52,0,0,0,77,71.27a3,3,0,0,0,1.7.28A1.82,1.82,0,0,0,80,70.9a3.08,3.08,0,0,0,.58-1.75,18.63,18.63,0,0,0-.07-3.47c-.11-.76-.19-1.36-.26-1.74s-.16-.93-.31-1.7-.31-1.5-.49-2.2-.4-1.49-.66-2.39a20,20,0,0,0-.83-2.42A20.49,20.49,0,0,0,77,53.24Z"/><path class="cls-2" d="M83.37,57.09c-.34-2.29-.52-3.49-.85-5.91a1.15,1.15,0,0,1-.4-.75,1.22,1.22,0,0,1,.22-.88,1,1,0,0,1,.73-.46c.93-.13,1.52.73,1.79,2.56,1,5.34,1.52,8,2.34,12.23a5.31,5.31,0,0,1,.65,1.52,10.94,10.94,0,0,1,.41,1.65,4.34,4.34,0,0,0,.46,1.28,6.24,6.24,0,0,0,.93,1.31,3.72,3.72,0,0,0,1.4.94,4.08,4.08,0,0,0,1.61.32,3.09,3.09,0,0,0,1.15-.16.88.88,0,0,0,.51-.45,2.3,2.3,0,0,0,.17-1.1,49.66,49.66,0,0,0-.68-5.06,25.94,25.94,0,0,0-.78-3c-.41-1.37-.7-2.47-.84-3.23a2,2,0,0,0,0-.24c-.18-.83-.27-1.26-.46-2.12-.56-2.53-.85-3.86-1.35-6.51a.86.86,0,0,1,.36-.83,1.79,1.79,0,0,1,.94-.43l1.07.78.1.64c0,1,0,1.45.09,2.4.36,2.14,1.08,5.39,2,9.13s1.34,5.77,1.47,6.76a9.45,9.45,0,0,1,.1,1.85,2.27,2.27,0,0,1-.28.87,1.75,1.75,0,0,1-.67.68,6.23,6.23,0,0,1-3,.5,8.85,8.85,0,0,1-3.89-.67,5.1,5.1,0,0,1-2.43-2.4,19.89,19.89,0,0,1-1.53-4.23C84.24,62,83.77,59.63,83.37,57.09Z"/><path class="cls-2" d="M97.18,56.07c-.42-2.74-.64-4.18-1-7a1.72,1.72,0,0,0,0-.24c-.2-1.3,0-2,.57-2.06s1.35,1,2.64,3.32c2.34,4.13,6.67,11.28,9.28,18.8a.74.74,0,0,1,0,.14c-.06-4-.65-6.51-1.72-11.64C106,53,105.4,50.59,104.73,46a1.18,1.18,0,0,1,1.13-1.15c.69-.09,1.1.37,1.26,1.39,0,.09,0,.14,0,.23a2.7,2.7,0,0,0,0,1.18c.9,5.79,1.78,8.72,2.69,14,.84,4.35,1.24,6.31.88,9.78a1.23,1.23,0,0,1-.44.8,1,1,0,0,1-.88.28c-.56-.07-1.13-1.84-3.29-5.84s-5-9.12-7.69-15c.91,5.06,1.54,7.52,2.26,11.75.18,1,.54,2.5.91,4.18a12,12,0,0,1,.39,3.42c0,.13-.18.23-.49.3a5,5,0,0,1-1.15.06c-.47,0-.69-.13-.67-.33a9.36,9.36,0,0,0,.23-1.52,26.35,26.35,0,0,0-.75-4.37c-.52-2.32-.94-4-1-4.55C97.73,58.85,97.54,58,97.18,56.07Z"/><path class="cls-2" d="M115.74,51.47c.45,2,.69,3.05,1.15,5.06A69.18,69.18,0,0,1,119,65.35a24.53,24.53,0,0,1,.46,6.7c-.12,1.19-.64,1.7-1.4,1.56a1.09,1.09,0,0,1-.88-.71,2.71,2.71,0,0,1-.16-1.24A22.26,22.26,0,0,0,117.2,66,38.62,38.62,0,0,0,116,60.25c-.74-2.62-1.34-4.59-1.66-5.94s-.46-2.06-.74-3.43a13.79,13.79,0,0,0-1.13-3.62l-2.06.5a1.43,1.43,0,0,1-.93-.17,1,1,0,0,1-.52-.72c-.06-.31.21-.61.79-.92a10,10,0,0,1,2.19-.81,34.67,34.67,0,0,1,3.87-.82,1.33,1.33,0,0,1,.9.2,1,1,0,0,1,.52.74.92.92,0,0,1-.2.81,1.23,1.23,0,0,1-.78.4l-1.4.11a3.2,3.2,0,0,0-.39.07C114.88,48.14,115.33,49.75,115.74,51.47Z"/><path class="cls-3" d="M79.71,88.17l0,0a15.23,15.23,0,0,0-.46,4.22,24.85,24.85,0,0,1-.37,4.51c-.47,2.08-2,3.11-4.59,3.11a3.56,3.56,0,0,1-3-1.45,7.93,7.93,0,0,1-1.49-3.09c-.19-1-.33-1.73-.43-2.3a17.88,17.88,0,0,1-.2-2.1c0-1.24-.08-2.32-.08-3.25a22.53,22.53,0,0,1,.21-3,33.6,33.6,0,0,1,.68-3.41,8.16,8.16,0,0,1,1.42-3.09,2.78,2.78,0,0,1,2.23-1.24q6.15,0,6.15,10.9Zm-6-8.3c-.45,0-.91,1-1.37,3.14a24.46,24.46,0,0,0-.7,4.11q0,1,0,1.71c0,.49.05,1.14.1,1.94s.14,1.57.26,2.28a18.45,18.45,0,0,0,.44,2.07,4.26,4.26,0,0,0,1.67,2.18c2,0,3-2.62,3-7.84Q77.18,79.86,73.75,79.87Zm11.68.29,0,0a4.64,4.64,0,0,1,.41-1.76q.39-.9,1-.9a1.65,1.65,0,0,1,1.09.36,1.22,1.22,0,0,1,.43,1q0,3.84-4.86,22.15-2.27,8.52-2.61,10.42c-.23,1.28-.42,2.23-.56,2.88s-.4,1.36-.65,2.15c-.55,1.66-1.26,2.51-2.12,2.55a2.06,2.06,0,0,1-1-1.94,31.36,31.36,0,0,1,.68-4.87c.44-2.36,1.1-5.22,2-8.61s1.6-6.25,2.21-8.62Q84.12,84.67,85.43,80.16Zm7.25,37.6a4.45,4.45,0,0,1-2.73,1A3.13,3.13,0,0,1,87.7,118,5.63,5.63,0,0,1,86.4,116a15.31,15.31,0,0,1-.81-2.58,18.36,18.36,0,0,1-.54-4c0-1.07,0-1.82,0-2.24s0-1,.06-1.87a21.06,21.06,0,0,1,.2-2.12c.1-.59.23-1.27.38-2a7.7,7.7,0,0,1,.63-2,11,11,0,0,1,.94-1.53,3.52,3.52,0,0,1,3-1.47A4,4,0,0,1,93.83,98a8.34,8.34,0,0,1,1.48,3.38,28.37,28.37,0,0,1,.4,4.57v2.68a18.14,18.14,0,0,1-1.12,6.5A6.13,6.13,0,0,1,92.68,117.76ZM93,106.24a18.17,18.17,0,0,0-.38-3.71c-.79-1.89-1.63-3-2.52-3.43-1.06,0-1.75,1.47-2.07,4.37a48.79,48.79,0,0,0-.38,5,20.11,20.11,0,0,0,.66,4.44c.44,1.84.89,2.77,1.36,2.77q3.33,0,3.33-7.25Z"/></svg>
