<svg id="Layer_1" data-name="Layer 1" xmlns="http://www.w3.org/2000/svg" viewBox="0 0 150 150"><defs><style>.cls-1{fill:#bc2a2a;}.cls-2{fill:#fff;}</style></defs><title>sold-out</title><path class="cls-1" d="M128.74,56c.24.57.47,1.15.7,1.74A4.72,4.72,0,0,0,128.74,56Z"/><path class="cls-1" d="M98.34,25.43,101.05,27A3.74,3.74,0,0,0,98.34,25.43Z"/><path class="cls-1" d="M130,69.44a53.24,53.24,0,0,1,1.37,5.74A14.1,14.1,0,0,0,130,69.44Z"/><path class="cls-1" d="M117.69,105.38a8.39,8.39,0,0,0,2.35-3.81.64.64,0,0,1-.1.13C119.22,103,118.37,104.22,117.69,105.38Z"/><path class="cls-1" d="M131.39,75.18a35.08,35.08,0,0,0,.69,7.35A44.64,44.64,0,0,0,131.39,75.18Z"/><path class="cls-1" d="M107,25.46l-1.5-.88.81.58A3.27,3.27,0,0,1,107,25.46Z"/><path class="cls-1" d="M102.6,22.87l2.9,1.71C104.55,24,103.57,23.4,102.6,22.87Z"/><path class="cls-1" d="M120.9,98.18l-.33,1.5A1.53,1.53,0,0,0,120.9,98.18Z"/><path class="cls-1" d="M132.71,52.23l.87,1.92A3.62,3.62,0,0,0,132.71,52.23Z"/><path class="cls-1" d="M102.5,22.82h0l.1.05Z"/><path class="cls-1" d="M110.46,32.53l1.1.64Z"/><path class="cls-1" d="M119.45,102.37a6.38,6.38,0,0,0,.49-.67l.15-.26c.18-.58.34-1.16.48-1.76C119.77,100.6,118.15,100.89,119.45,102.37Z"/><path class="cls-1" d="M120,107.42c-.05.13,0,.06,0,0Z"/><path class="cls-1" d="M18,75.23c-.05-.63-.09-1.26-.12-1.9A4.46,4.46,0,0,0,18,75.23Z"/><path class="cls-1" d="M38.73,115.11l-2.23-2.48A4.21,4.21,0,0,0,38.73,115.11Z"/><path class="cls-1" d="M21.23,62.14a48.27,48.27,0,0,1,.53-5.89A13,13,0,0,0,21.23,62.14Z"/><path class="cls-1" d="M21.76,56.25c.66-2.29,1.59-4.51,1.77-7.18A41.36,41.36,0,0,0,21.76,56.25Z"/><path class="cls-1" d="M29.89,111.92l1.24,1.38-.63-.85A3.87,3.87,0,0,1,29.89,111.92Z"/><path class="cls-1" d="M33.52,116l-.75-.84C33,115.4,33.26,115.69,33.52,116Z"/><path class="cls-1" d="M32.77,115.12c-.56-.6-1.12-1.19-1.64-1.82Z"/><path class="cls-1" d="M12.65,77.35c-.08-.69-.16-1.39-.24-2.11A3.61,3.61,0,0,0,12.65,77.35Z"/><path class="cls-1" d="M33.6,116.05h0l-.08-.09Z"/><path class="cls-1" d="M28.74,104l-.9-1Z"/><path class="cls-1" d="M17.68,95.7c.08-1.24-1.07-3.85-1-5.08,2,8.55,9,15.35,13.81,21.83,1.33,1,3.24,1.48,3.1,3.6,15,15.5,38.37,19.66,57.87,11.15a44.14,44.14,0,0,1-30.93,4.16c5.2,1.8,11.82,2.51,17.11,3.07l-1.41,1.09c14.64.32,25.81-7.19,35.75-16.08-1.49,2.33-2.9,3.42-4.39,5.75a19.78,19.78,0,0,0,3.91-2.88c-.8,1.45-1.57,2.9-2.26,4.36a102.55,102.55,0,0,0,9.92-16.77c-.08.07-.15.17-.24.24,1.76-3,.83-6.57,3.78-9.89a63.15,63.15,0,0,1-3.54,9.65c1.94-1.92,3.31-5.87,3.85-8.46l.88-1.5a60.74,60.74,0,0,1-13.15,27.61,64.54,64.54,0,0,0,15.74-37.19c1,8.65-3.41,16.16-6.31,24.55,6-8.8,9-19.34,9.33-30.35-.51-2.53-1-5.15-.17-7.67a72.91,72.91,0,0,1,.17,7.67,26,26,0,0,1,.56,3.78,105.91,105.91,0,0,0-3.58-27.25c.93,3.57,1.86,7.15,4,10.41-.31-1.19-.31-1.19-.63-2.38l.17.32a79.26,79.26,0,0,0-6.59-15.19,4.52,4.52,0,0,1,2.12,3.27l-.93-3.58c.31,1.19,2.12,3.26,2.43,4.46.57-2.7-3.62-4.15-3-6.84l.31,1.19-.93-3.57c.93,3.57,4.24,6.52,5.18,10.1-.31-1.2-.62-2.39-.94-3.58a1,1,0,0,1,1.12.33c-4-9.63-9.88-17.63-18.68-23.74l-1.5-.88c3.31,2.95,6.63,5.91,9.06,10.36-3.31-3-7.82-5.59-9.94-8.86l3,1.77c-4.82-3.84-9.63-7.67-15-8.81a8.94,8.94,0,0,1,2.68-.44l-1.8-1.06c17.66,4.3,29.17,19.11,35.9,35.16l-.62-2.38c3.63,4.14,2.49,9.53,5.8,12.48-1.55-5.95-1.91-12.22-5.85-17.55a1,1,0,0,1,.94.15c-2.73-6-5.42-11-10.06-15.59.31,1.19,2.12,3.26,2.43,4.46-4.37-7.4-12.54-11.47-18.77-15.94-1.46-.46-3.28-.3-3.81-2.34-17.82-9.58-39.41-5.64-53.67,8.92A39.69,39.69,0,0,1,74.37,17.43c-5.08.06-11,1.61-15.8,2.86l.88-1.51c-.69.25-1.36.53-2,.81,1.51-1.22,3-2.46,4.36-3.75-2.78,1.77-5.56,3.68-8.26,5.74a38.59,38.59,0,0,0-8.69,7.05,20.59,20.59,0,0,0-5.65,5.94l-1.41,1.09A59.14,59.14,0,0,1,60.55,14.47,62.33,62.33,0,0,0,31.89,43.74c1.92-8.5,9-14,14.75-20.81A54,54,0,0,0,26.85,48.09c-.33,2.57-.67,5.23-2.42,7.29a68.41,68.41,0,0,1,2.42-7.29,24.09,24.09,0,0,1,.71-3.76,97.74,97.74,0,0,0-5.55,27c.26-3.71.51-7.41-.56-11.25-.08,1.23-.08,1.23-.17,2.47,0-.13,0-.25-.05-.37a75.83,75.83,0,0,0,1.6,16.7A4.48,4.48,0,0,1,21.76,75c-.09,1.24-.17,2.47-.25,3.71.08-1.24-1.07-3.85-1-5.08-1.49,2.32,2.31,5.22.82,7.54l.08-1.23c-.08,1.23-.17,2.47-.25,3.7.25-3.7-2.14-7.69-1.89-11.39-.08,1.24-.17,2.47-.25,3.7a1.14,1.14,0,0,1-1-.71,52.88,52.88,0,0,0,11.07,29.15l1.24,1.37c-2.39-4-4.78-8-5.77-13,2.4,4,6.11,8.11,7.18,12l-2.48-2.75c3.63,5.36,7.26,10.72,12.38,13.75a11.15,11.15,0,0,1-2.89-.55l1.49,1.65C23.61,106.28,16.86,88.15,15.4,70.58c-.09,1.24-.09,1.24-.17,2.47-2.31-5.22.68-9.87-1.72-13.86-.42,6.17-2.16,12.2.06,18.66a1.17,1.17,0,0,1-.92-.5C13.43,84,14.47,89.73,17.68,95.7ZM35.81,45.33l0,.07v0ZM121.29,86.2l-.07-.15.06-.31,0,0C121.32,85.91,121.31,86.06,121.29,86.2Zm-4.68-12.12c.34.86.65,1.72.91,2.6A9.5,9.5,0,0,1,116.61,74.08ZM123,96.36c-.88,1.51-.57,2.7-1.45,4.2l-.3-1.16a.25.25,0,0,0,0,.07c-.58,5.38-2.66,10.14-5.1,14.68a19.29,19.29,0,0,0,.45-2.93c-2.82,2.19-3.15,7.13-7.21,7.94,4.48-7,8.87-12.73,9.46-21.38C118.72,99,120,99.16,120,99.16c.17-2.47.42-6.17.59-8.64a11.55,11.55,0,0,0,0,1.43c-.15,1.2-.28,2.45-.37,3.85l.68-1.16c.07.54.15,1.08.22,1.61,0-.44.06-.87.11-1.3a8.55,8.55,0,0,1,0,2.89c0-.51-.09-1-.16-1.59a15.12,15.12,0,0,0,.07,2.12,12.47,12.47,0,0,1-1.16,3.07s0,.09,0,.13a10.22,10.22,0,0,0,1.16-2.1s0-.07,0-.1v0c0-.11.07-.22.11-.34a2,2,0,0,1,0,.24c0-.1,0-.21,0-.31a15.93,15.93,0,0,0,.64-2.37l-.22.06c.11-.1.18-.2.27-.29a58.13,58.13,0,0,0,.56-6.29c.59,2.26,1.15,4.51-.56,6.29,0,.07,0,.15,0,.23Zm-82.76-62c-.31.44-.62.89-.92,1.34l-.19.1C39.46,35.31,39.84,34.84,40.21,34.36Z"/><path class="cls-2" d="M42.46,76.11c-.11-.76.15-1.19.79-1.28a3.43,3.43,0,0,1,1.3.14,3.56,3.56,0,0,0,1.4.12,1.79,1.79,0,0,0,1.13-.9,5.37,5.37,0,0,0,.78-2,12.37,12.37,0,0,0,.19-4.09,13.09,13.09,0,0,0-1.18-3.72,24.78,24.78,0,0,0-2.07-3.61L42.47,57.5A17.41,17.41,0,0,1,39.2,50a6.63,6.63,0,0,1,1.34-5.52A3.9,3.9,0,0,1,43,43.14a3.05,3.05,0,0,1,1.56.21,2.32,2.32,0,0,1,1.18,1l-.59,1a2.88,2.88,0,0,1-1.73-.17,2.07,2.07,0,0,0-1.26,1,4.51,4.51,0,0,0-.62,3.17,13.42,13.42,0,0,0,1,3.44,16.72,16.72,0,0,0,1.58,2.89L46,58.32c.69,1,1.33,1.91,1.93,2.82a16.8,16.8,0,0,1,2.66,7A10.71,10.71,0,0,1,50,73.66a5.77,5.77,0,0,1-1.54,2.25A4.56,4.56,0,0,1,46,77.06a5.33,5.33,0,0,1-2.48-.1C42.85,76.74,42.51,76.46,42.46,76.11Z"/><path class="cls-2" d="M62.83,60.54,63.24,66l0,.19a12.06,12.06,0,0,0,.1,2.59,7.53,7.53,0,0,1-.09,2.72A6.47,6.47,0,0,1,62.16,74a3.06,3.06,0,0,1-2,1.3,3.29,3.29,0,0,1-2.24-.49A6.34,6.34,0,0,1,56.05,73a17.83,17.83,0,0,1-1.53-2.79A31.65,31.65,0,0,1,53.3,67c-.34-1.06-.64-2.19-.93-3.38-.43-1.82-.72-3.23-.86-4.25s-.28-1.89-.39-2.62-.23-1.38-.33-2l-.14-1-.17-1.13c-.1-.82-.18-1.56-.25-2.22s-.1-1.37-.11-2.13a16.62,16.62,0,0,1,.05-2,10.76,10.76,0,0,1,.31-1.77A6,6,0,0,1,51.11,43a3.13,3.13,0,0,1,2.21-1.55,5.12,5.12,0,0,1,2.38.15,4.11,4.11,0,0,1,1.84,1.34c.54.65,1,1.3,1.45,1.93a10.59,10.59,0,0,1,1.18,2.72L61,50.43a29.22,29.22,0,0,1,.71,3.23c.33,1.89.57,3.37.73,4.43Zm-6-15A4.5,4.5,0,0,0,55.49,44a1.89,1.89,0,0,0-1.34-.41,1.37,1.37,0,0,0-1,.59,3.66,3.66,0,0,0-.5,1.33c-.11.56-.19,1.16-.25,1.79a15.14,15.14,0,0,0,0,2.16c0,.81.08,1.54.12,2.2s.12,1.35.21,2.13c.16,1.29.28,2.3.37,3l0,.19a48.37,48.37,0,0,0,1.33,6.08q.91,3.23,1.69,5.26a14.21,14.21,0,0,0,1.77,3.38c.67.9,1.33,1.3,2,1.21s1-.69,1.2-1.81A17.21,17.21,0,0,0,61.35,67c-.13-2.87-.28-4.87-.44-6s-.28-2-.36-2.5-.22-1.29-.4-2.29-.37-1.93-.58-2.8-.46-1.82-.75-2.87a24.16,24.16,0,0,0-.93-2.77A22,22,0,0,0,56.8,45.52Z"/><path class="cls-2" d="M67.74,56.5,68,57.84,68,58q.7,3.67,1.78,11.07l.15,1.08,3.25-.47q1,.5,1.08,1.05a1.36,1.36,0,0,1-.17,1,.9.9,0,0,1-.6.46,2.72,2.72,0,0,1-.79,0,4.53,4.53,0,0,1-.79.2l-1.38.13a1.39,1.39,0,0,1-1,.68,1.64,1.64,0,0,1-1.16-.24,1.24,1.24,0,0,1-.58-.88V70.14q-.7-4.85-2.53-14.45T62.7,41.23a.73.73,0,0,1,.22-.67,1.27,1.27,0,0,1,.74-.36,1.28,1.28,0,0,1,.91.23,1.15,1.15,0,0,1,.51.82Z"/><path class="cls-2" d="M85,54.44l.23.87a19.61,19.61,0,0,1-.56,7.34q-1.16,5-3.36,7.26a4.87,4.87,0,0,1-2.74,1.57,3,3,0,0,1-1.49-.16,1.18,1.18,0,0,1-.8-1c.53-.74.59-2.45.2-5.14q-.34-2.37-1.42-7c-.71-3.07-1.18-5.39-1.41-6.94l-.55-4.67a13.41,13.41,0,0,0-.91-3A13.4,13.4,0,0,1,71.32,41c-.14-1,.87-1.63,3.05-2L75,39q4.35-.65,7,3.94a26.06,26.06,0,0,1,2.73,9.15L85,54A.86.86,0,0,0,85,54.44ZM78.5,64.8l.59,4.07a9.5,9.5,0,0,0,2.36-3.3,15.39,15.39,0,0,0,1.22-4.33,32.39,32.39,0,0,0-.06-8.58,19.91,19.91,0,0,0-2.31-7.43,7.2,7.2,0,0,0-3.59-3.34,5.28,5.28,0,0,0-2.61-.19v0q.56,3.84,2.2,11.5T78.5,64.8Z"/><path class="cls-2" d="M75.79,101.83l.37,4.93,0,.17a10.45,10.45,0,0,0,.09,2.35,7.07,7.07,0,0,1-.08,2.47,6,6,0,0,1-1,2.25,2.73,2.73,0,0,1-1.81,1.17,3,3,0,0,1-2-.43,5.83,5.83,0,0,1-1.7-1.63,14.73,14.73,0,0,1-1.39-2.53,28.18,28.18,0,0,1-1.11-2.94q-.45-1.44-.84-3.06c-.39-1.65-.65-2.94-.78-3.86s-.25-1.72-.36-2.37-.2-1.25-.29-1.78l-.13-.88-.15-1c-.1-.75-.17-1.42-.23-2s-.09-1.24-.1-1.94a15.54,15.54,0,0,1,0-1.85,9.89,9.89,0,0,1,.29-1.61,5,5,0,0,1,.57-1.37,2.83,2.83,0,0,1,2-1.41,4.45,4.45,0,0,1,2.15.14A3.68,3.68,0,0,1,71,85.83a20.94,20.94,0,0,1,1.31,1.75,9.25,9.25,0,0,1,1.08,2.47c.33,1.07.59,1.94.79,2.61a29.07,29.07,0,0,1,.64,2.93q.45,2.56.66,4ZM70.32,88.2a4.13,4.13,0,0,0-1.19-1.38,1.68,1.68,0,0,0-1.21-.37A1.22,1.22,0,0,0,67,87a3.16,3.16,0,0,0-.46,1.21,15.46,15.46,0,0,0-.22,1.62,13.79,13.79,0,0,0,0,2c0,.73.07,1.39.11,2s.11,1.23.19,1.94c.14,1.17.25,2.08.34,2.74l0,.17a41.84,41.84,0,0,0,1.21,5.51q.83,2.92,1.53,4.77A12.75,12.75,0,0,0,71.34,112c.6.81,1.2,1.18,1.79,1.09s.88-.62,1.09-1.64a15.68,15.68,0,0,0,.23-3.73c-.12-2.6-.25-4.41-.4-5.45s-.25-1.8-.33-2.27-.2-1.17-.36-2.08-.34-1.75-.53-2.54-.42-1.65-.68-2.6a19.91,19.91,0,0,0-1.83-4.54Z"/><path class="cls-2" d="M76.69,92.14l-.84-6a1.2,1.2,0,0,1-.4-.75,1.26,1.26,0,0,1,.21-.88,1,1,0,0,1,.73-.47q1.39-.19,1.8,2.55L80.5,99.91a8.07,8.07,0,0,1,.68,2,23.66,23.66,0,0,1,.51,2.38,11.12,11.12,0,0,0,.58,2.07,18.88,18.88,0,0,0,1.13,2.43,6.67,6.67,0,0,0,1.61,2,2.26,2.26,0,0,0,1.69.68,1.53,1.53,0,0,0,1-.5,1.92,1.92,0,0,0,.35-1.07,11.25,11.25,0,0,0-.1-2.15l-1.1-7.54q-.18-1.23-.78-3.6c-.39-1.59-.65-2.79-.77-3.61l0-.26-.4-2.23-1.24-6.57a.87.87,0,0,1,.36-.84,1.81,1.81,0,0,1,.93-.43l1.08.77.09.64.06,2.39q.46,3.23,1.76,9.66c.86,4.29,1.4,7.19,1.63,8.72s.34,2.55.37,3.06a9.52,9.52,0,0,1,0,1.67,4.87,4.87,0,0,1-.41,1.53,3.27,3.27,0,0,1-2.64,1.73,4.4,4.4,0,0,1-4.09-1.51,14.07,14.07,0,0,1-2.87-4.93,45.42,45.42,0,0,1-1.78-6.18Q77.28,96.15,76.69,92.14Z"/><path class="cls-2" d="M94.73,88.09l.65,5L97,101.9l1.33,6.89c.18,1.25-.1,1.94-.84,2a1,1,0,0,1-1-.46,3.1,3.1,0,0,1-.5-1.3l-.59-6.2c-.19-1.33-.57-3.33-1.14-6s-.94-4.65-1.14-6l-.43-3.38A11.35,11.35,0,0,0,91.79,84l-2.07.51a1.37,1.37,0,0,1-.91-.16.9.9,0,0,1-.5-.7c0-.3.22-.61.81-.91a10,10,0,0,1,2.19-.82,35.38,35.38,0,0,1,3.86-.83,1.3,1.3,0,0,1,.9.18,1,1,0,0,1,.5.73.89.89,0,0,1-.23.79,1.28,1.28,0,0,1-.79.4l-1.38.12a3.06,3.06,0,0,0-.4.08A39.51,39.51,0,0,1,94.73,88.09Z"/><path class="cls-2" d="M105.1,109c.13.9-.44,1.45-1.71,1.63a1.25,1.25,0,0,1-.91-.28,1.38,1.38,0,0,1-.58-1,1.8,1.8,0,0,1,.29-1.28,1.52,1.52,0,0,1,1.09-.7,1.35,1.35,0,0,1,1.2.38A2.1,2.1,0,0,1,105.1,109Zm-1.95-9.67.31,1.83c.25,1.75.14,2.67-.34,2.74-.26,0-.55-.24-.86-.84a7.44,7.44,0,0,1-.67-2.33l-.78-6.41-2-12.63a1.37,1.37,0,0,1,.35-1.12,1.57,1.57,0,0,1,1-.59,1,1,0,0,1,.82.16.9.9,0,0,1,.37.63c.3,2.06.61,5.15.94,9.29S102.85,97.25,103.15,99.29Z"/></svg>
