<?xml version="1.0" encoding="utf-8"?>
<!-- Generator: Adobe Illustrator 24.0.0, SVG Export Plug-In . SVG Version: 6.00 Build 0)  -->
<svg version="1.1" id="Layer_1" xmlns="http://www.w3.org/2000/svg" xmlns:xlink="http://www.w3.org/1999/xlink" x="0px" y="0px"
	 viewBox="0 0 175.3 100.8" style="enable-background:new 0 0 175.3 100.8;" xml:space="preserve">
<style type="text/css">
	.st0{fill-rule:evenodd;clip-rule:evenodd;fill:#404041;}
	.st1{fill:#404041;}
	.st2{fill:#F1F1F1;}
</style>
<g>
	<g id="XMLID_11_">
		<path id="XMLID_13_" class="st0" d="M93.3,22.4c22.6,1.9,40.5,15.8,42,33.2H40.7c1.5-17.3,19.4-31.3,42-33.2
			c0.7-0.7,1.5-1.5,2.2-1.8c0.7-0.3,0.5-2.8,0.3-3.4c-0.2-0.6-1.3-0.5-1.5-1.4c-0.2-0.9,1.8-1,2.1-1.2c0.3-0.2,0-0.6,1.1-1.3
			c0.4-0.3,0.8-0.4,1.1-0.4c0.3,0,0.6,0.1,1.1,0.4c1.1,0.6,0.8,1.1,1.1,1.3c0.3,0.2,2.3,0.2,2.1,1.2c-0.2,0.9-1.2,0.8-1.5,1.4
			c-0.2,0.6-0.4,3.1,0.3,3.4C91.8,20.9,92.6,21.7,93.3,22.4L93.3,22.4z M78.2,24.9c-13.7,1.2-32.6,14.7-34,28.6h8.3
			C52.7,38.6,65.3,28.6,78.2,24.9z"/>
		<polygon id="XMLID_12_" class="st0" points="25.2,56.9 88,56.9 150.8,56.9 137.5,61.4 135.7,62.5 88,62.5 40.3,62.5 38.5,61.4 		
			"/>
	</g>
	<polygon id="XMLID_10_" class="st0" points="88,91.9 2,91.9 9.3,77.6 2,64.4 88,64.4 174,64.4 166.7,77.6 174,91.9 	"/>
	<g id="XMLID_2_">
		<g id="XMLID_88_">
			<path id="XMLID_89_" class="st1" d="M74.7,11.4c-0.5,1.4-2.3,3.1-5,3.9c-2.7,0.8-5.2,0.4-6.3-0.6c0.2-1.4,2-3.5,4.9-4.3
				C71.1,9.6,73.7,10.4,74.7,11.4z"/>
		</g>
		<g id="XMLID_80_">
			<path id="XMLID_87_" class="st1" d="M47.1,23.4c0,0,0.2-0.2,0.7-0.5c0.4-0.3,1-0.7,1.8-1.1c0.7-0.5,1.6-1,2.6-1.5
				c1-0.5,2-1.1,3-1.6c2.1-1.1,4.2-1.9,5.8-2.6c1.6-0.6,2.7-1,2.7-1l-0.3-0.8c0,0-1.1,0.4-2.7,1C59,16,56.8,16.9,54.7,18
				c-1.1,0.5-2.1,1.1-3.1,1.6c-1,0.6-1.8,1.1-2.6,1.5c-0.7,0.5-1.4,0.9-1.8,1.1c-0.4,0.3-0.7,0.5-0.7,0.5L47.1,23.4z"/>
			<g id="XMLID_84_">
				<path id="XMLID_86_" class="st1" d="M66.2,23.8c-0.3-1.5-1.9-3.8-4.6-5.2c-2.7-1.4-5.4-1.3-6.4-0.3c0.4,1.5,2.3,3.5,5,4.8
					C62.9,24.5,65.2,24.5,66.2,23.8z"/>
				<path id="XMLID_85_" class="st1" d="M59.5,6.1c0.8,1.3,0.9,4.1-0.2,7.1c-1.1,2.9-2.8,4.8-4.2,5.1c-0.9-1.1-1.4-4-0.3-7
					C55.9,8.1,58.1,6.3,59.5,6.1z"/>
			</g>
			<g id="XMLID_81_">
				<path id="XMLID_83_" class="st1" d="M50.2,10.1c1,1.2,1.3,4,0.6,7.1c-0.4,1.5-0.9,2.8-1.6,3.8c-0.6,1-1.3,1.6-2,1.8l0,0
					c-1.1-1-1.9-3.8-1.2-6.9c0.4-1.6,1.1-2.9,1.8-3.9C48.6,11,49.5,10.3,50.2,10.1z"/>
				<path id="XMLID_82_" class="st1" d="M58.7,27.1c-0.5-1.4-2.3-3.6-5.1-4.7c-1.4-0.5-2.8-0.7-3.9-0.6c-1.1,0.1-2,0.5-2.4,1l0,0
					c0.5,1.4,2.8,3.2,5.6,4.2c1.4,0.5,2.6,0.7,3.7,0.7C57.5,27.7,58.3,27.5,58.7,27.1z"/>
			</g>
		</g>
		<g id="XMLID_70_">
			<path id="XMLID_79_" class="st1" d="M34.6,36.3c0,0,0.1-0.3,0.4-0.7c0.3-0.4,0.7-1,1.2-1.7c0.5-0.7,1.1-1.5,1.8-2.3
				c0.4-0.4,0.7-0.8,1.1-1.2c0.2-0.2,0.4-0.4,0.6-0.6l0.6-0.6c0.4-0.4,0.8-0.8,1.2-1.2c0.4-0.4,0.9-0.7,1.3-1.1
				c0.8-0.7,1.6-1.3,2.3-1.9c0.7-0.5,1.3-0.9,1.7-1.2c0.4-0.3,0.7-0.5,0.7-0.5L47,22.5c0,0-0.2,0.2-0.7,0.5c-0.4,0.3-1,0.7-1.7,1.2
				c-0.7,0.6-1.5,1.1-2.3,1.9c-0.4,0.4-0.8,0.7-1.3,1.1c-0.4,0.4-0.8,0.8-1.3,1.2L39,29.1c-0.2,0.2-0.4,0.4-0.6,0.7
				c-0.4,0.4-0.8,0.9-1.1,1.3c-0.7,0.9-1.3,1.7-1.8,2.4c-0.5,0.7-0.9,1.4-1.2,1.8c-0.3,0.5-0.4,0.7-0.4,0.7L34.6,36.3z"/>
			<g id="XMLID_76_">
				<path id="XMLID_78_" class="st1" d="M52,31c-0.6-1.3-2.7-3.3-5.7-3.9c-0.7-0.2-1.4-0.2-2.1-0.2c-0.7,0-1.3,0.1-1.8,0.3
					c-1.1,0.3-1.9,0.8-2.2,1.4c0.4,0.6,1.2,1.3,2.3,1.8c1.1,0.5,2.4,1,3.8,1.3c0.7,0.1,1.4,0.2,2,0.2c0.6,0,1.2,0,1.6-0.1
					C50.9,31.8,51.7,31.5,52,31z"/>
				<path id="XMLID_77_" class="st1" d="M41.2,15.4c1.1,1,1.8,3.8,1.5,6.9c-0.1,0.8-0.2,1.5-0.4,2.2c-0.2,0.7-0.4,1.3-0.6,1.8
					c-0.5,1-1,1.8-1.6,2.1c-0.6-0.4-1.3-1.2-1.8-2.4c-0.5-1.2-0.8-2.6-0.6-4.3C38,18.5,39.8,16,41.2,15.4z"/>
			</g>
			<g id="XMLID_73_">
				<path id="XMLID_75_" class="st1" d="M32.8,22.4c0.7,0.4,1.3,1.3,1.8,2.4c0.5,1.2,0.9,2.6,1,4.2c0.2,1.6,0.1,3-0.2,4.1
					c-0.2,1.2-0.5,2-1.1,2.5v0c-0.6-0.2-1.5-0.9-2.2-1.9c-0.7-1-1.3-2.4-1.6-4.1c-0.2-1.7,0-3.3,0.5-4.5
					C31.5,23.9,32.1,22.9,32.8,22.4z"/>
				<path id="XMLID_74_" class="st1" d="M46.4,35.7c-0.5-0.6-1.3-1.3-2.4-1.8c-1.1-0.5-2.4-0.9-3.9-1c-1.5,0-2.9,0.3-3.9,0.9
					c-0.9,0.6-1.9,1.3-1.9,1.9v0c0.6,0.5,1.6,0.9,2.8,1.2c1.2,0.3,2.7,0.4,4.1,0.4c0.7,0,1.4,0,2-0.1c0.6-0.1,1.1-0.2,1.5-0.3
					C45.6,36.6,46.1,36.2,46.4,35.7z"/>
			</g>
		</g>
		<g id="XMLID_58_">
			<path id="XMLID_69_" class="st1" d="M31,53.6c0,0,0-0.3-0.1-0.8c0-0.5-0.1-1.2-0.1-2.1c0-0.9,0.1-1.9,0.1-2.9
				c0.1-0.5,0.1-1.1,0.2-1.6c0.1-0.6,0.1-1.1,0.3-1.7c0.1-0.6,0.3-1.1,0.4-1.7c0.1-0.5,0.4-1.1,0.5-1.6c0.3-1,0.8-1.9,1.1-2.7
				c0.3-0.8,0.7-1.4,1-1.9c0.2-0.4,0.4-0.7,0.4-0.7l-0.7-0.4c0,0-0.1,0.3-0.4,0.7c-0.2,0.5-0.7,1.1-1,1.9c-0.4,0.8-0.8,1.7-1.1,2.8
				c-0.2,0.5-0.4,1.1-0.5,1.6c-0.1,0.6-0.3,1.1-0.4,1.7c-0.2,0.6-0.2,1.2-0.3,1.7c-0.1,0.6-0.2,1.1-0.2,1.7c0,1.1-0.1,2.1-0.1,3
				c0.1,0.9,0.1,1.6,0.1,2.1c0,0.5,0.1,0.8,0.1,0.8L31,53.6z"/>
			<g id="XMLID_63_">
				<path id="XMLID_65_" class="st1" d="M42.4,41c-0.6-0.5-1.6-0.9-2.7-1.2c-1.2-0.3-2.6-0.3-4,0c-0.7,0.2-1.4,0.4-2,0.8
					c-0.5,0.3-1,0.7-1.4,1.1c-0.8,0.8-1.1,1.7-1.1,2.4c0.7,0.3,1.7,0.4,2.9,0.3c1.2-0.1,2.5-0.4,3.9-0.8c0.7-0.2,1.3-0.4,1.8-0.6
					c0.5-0.2,1-0.4,1.3-0.6C41.8,41.9,42.3,41.5,42.4,41z"/>
				<path id="XMLID_64_" class="st1" d="M25.9,31.7c0.7,0.2,1.6,0.9,2.3,1.9c0.8,1,1.4,2.3,2.1,3.8c0.3,0.8,0.5,1.5,0.7,2.1
					c0.2,0.7,0.3,1.3,0.4,1.9c0.1,1.1,0.1,2.1-0.3,2.7c-0.7,0-1.7-0.3-2.8-1.1c-1-0.7-2.1-1.9-2.7-3.4c-0.3-0.8-0.6-1.6-0.7-2.4
					c-0.1-0.8-0.1-1.5-0.1-2.3C24.8,33.5,25.3,32.3,25.9,31.7z"/>
			</g>
			<g id="XMLID_59_">
				<path id="XMLID_62_" class="st1" d="M21.6,43.1c0.8,0,1.7,0.3,2.8,1.1c1.1,0.7,2.2,1.8,3.2,3c1,1.2,2,2.4,2.4,3.5
					c0.5,1,0.7,1.9,0.7,2.6v0c-1.8,0.4-4.4-0.1-6.8-2.5c-1.1-1.2-2-2.7-2.3-4.1C21.4,45.2,21.3,43.9,21.6,43.1z"/>
				<path id="XMLID_61_" class="st1" d="M40.3,46.7c-0.7-0.2-1.8-0.4-3-0.2c-1.2,0.1-2.5,0.5-3.8,1.3c-1.2,0.8-2,1.9-2.5,2.9
					c-0.4,1-0.2,2-0.2,2.6v0c1.2,0.2,4.1-1,6.3-2.6c1.2-0.8,2-1.6,2.5-2.2C40.2,47.7,40.3,47.1,40.3,46.7z"/>
			</g>
		</g>
	</g>
	<g id="XMLID_4_">
		<g id="XMLID_54_">
			<path id="XMLID_55_" class="st1" d="M101.9,11.4c0.5,1.4,2.3,3.1,5,3.9c2.7,0.8,5.2,0.4,6.3-0.6c-0.2-1.4-2-3.5-4.9-4.3
				C105.5,9.6,102.8,10.4,101.9,11.4z"/>
		</g>
		<g id="XMLID_46_">
			<path id="XMLID_53_" class="st1" d="M129.5,23.4c0,0-0.2-0.2-0.7-0.5c-0.4-0.3-1-0.7-1.8-1.1c-0.7-0.5-1.6-1-2.6-1.5
				c-1-0.5-2-1.1-3-1.6c-2.1-1.1-4.2-1.9-5.8-2.6c-1.6-0.6-2.7-1-2.7-1l0.3-0.8c0,0,1.1,0.4,2.7,1c1.6,0.7,3.8,1.6,5.9,2.6
				c1.1,0.5,2.1,1.1,3.1,1.6c1,0.6,1.8,1.1,2.6,1.5c0.7,0.5,1.4,0.9,1.8,1.1c0.4,0.3,0.7,0.5,0.7,0.5L129.5,23.4z"/>
			<g id="XMLID_50_">
				<path id="XMLID_52_" class="st1" d="M110.4,23.8c0.3-1.5,1.9-3.8,4.6-5.2c2.7-1.4,5.4-1.3,6.4-0.3c-0.4,1.5-2.3,3.5-5,4.8
					C113.7,24.5,111.3,24.5,110.4,23.8z"/>
				<path id="XMLID_51_" class="st1" d="M117,6.1c-0.8,1.3-0.9,4.1,0.2,7.1c1.1,2.9,2.8,4.8,4.2,5.1c0.9-1.1,1.4-4,0.3-7
					C120.7,8.1,118.5,6.3,117,6.1z"/>
			</g>
			<g id="XMLID_47_">
				<path id="XMLID_49_" class="st1" d="M126.3,10.1c-1,1.2-1.3,4-0.6,7.1c0.4,1.5,0.9,2.8,1.6,3.8c0.6,1,1.3,1.6,2,1.8l0,0
					c1.1-1,1.9-3.8,1.2-6.9c-0.4-1.6-1.1-2.9-1.8-3.9C127.9,11,127.1,10.3,126.3,10.1z"/>
				<path id="XMLID_48_" class="st1" d="M117.8,27.1c0.5-1.4,2.3-3.6,5.1-4.7c1.4-0.5,2.8-0.7,3.9-0.6c1.1,0.1,2,0.5,2.4,1l0,0
					c-0.5,1.4-2.8,3.2-5.6,4.2c-1.4,0.5-2.6,0.7-3.7,0.7C119,27.7,118.2,27.5,117.8,27.1z"/>
			</g>
		</g>
		<g id="XMLID_20_">
			<path id="XMLID_45_" class="st1" d="M141.9,36.3c0,0-0.1-0.3-0.4-0.7c-0.3-0.4-0.7-1-1.2-1.7c-0.5-0.7-1.1-1.5-1.8-2.3
				c-0.4-0.4-0.7-0.8-1.1-1.2c-0.2-0.2-0.4-0.4-0.6-0.6l-0.6-0.6c-0.4-0.4-0.8-0.8-1.2-1.2c-0.4-0.4-0.9-0.7-1.3-1.1
				c-0.8-0.7-1.6-1.3-2.3-1.9c-0.7-0.5-1.3-0.9-1.7-1.2c-0.4-0.3-0.7-0.5-0.7-0.5l0.5-0.7c0,0,0.2,0.2,0.7,0.5
				c0.4,0.3,1,0.7,1.7,1.2c0.7,0.6,1.5,1.1,2.3,1.9c0.4,0.4,0.8,0.7,1.3,1.1c0.4,0.4,0.8,0.8,1.3,1.2l0.6,0.6
				c0.2,0.2,0.4,0.4,0.6,0.7c0.4,0.4,0.8,0.9,1.1,1.3c0.7,0.9,1.3,1.7,1.8,2.4c0.5,0.7,0.9,1.4,1.2,1.8c0.3,0.5,0.4,0.7,0.4,0.7
				L141.9,36.3z"/>
			<g id="XMLID_24_">
				<path id="XMLID_44_" class="st1" d="M124.5,31c0.6-1.3,2.7-3.3,5.7-3.9c0.7-0.2,1.4-0.2,2.1-0.2c0.7,0,1.3,0.1,1.8,0.3
					c1.1,0.3,1.9,0.8,2.2,1.4c-0.4,0.6-1.2,1.3-2.3,1.8c-1.1,0.5-2.4,1-3.8,1.3c-0.7,0.1-1.4,0.2-2,0.2c-0.6,0-1.2,0-1.6-0.1
					C125.6,31.8,124.8,31.5,124.5,31z"/>
				<path id="XMLID_43_" class="st1" d="M135.3,15.4c-1.1,1-1.8,3.8-1.5,6.9c0.1,0.8,0.2,1.5,0.4,2.2c0.2,0.7,0.4,1.3,0.6,1.8
					c0.5,1,1,1.8,1.6,2.1c0.6-0.4,1.3-1.2,1.8-2.4c0.5-1.2,0.8-2.6,0.6-4.3C138.6,18.5,136.7,16,135.3,15.4z"/>
			</g>
			<g id="XMLID_21_">
				<path id="XMLID_23_" class="st1" d="M143.7,22.4c-0.7,0.4-1.3,1.3-1.8,2.4c-0.5,1.2-0.9,2.6-1,4.2c-0.2,1.6-0.4,3-0.2,4.1
					c0.2,1.2,0.2,2,0.8,2.5v0c1.2-0.2,1.9-0.9,2.6-1.9c0.7-1,1.5-2.4,1.7-4.1c0.2-1.7,0.1-3.3-0.4-4.5
					C145,23.9,144.4,22.9,143.7,22.4z"/>
				<path id="XMLID_22_" class="st1" d="M130.1,35.7c0.5-0.6,1.3-1.3,2.4-1.8c1.1-0.5,2.4-0.9,3.9-1c1.5,0,2.6,0.3,3.6,0.9
					c0.9,0.6,1.6,1.3,1.6,1.9v0c-0.6,0.5-1.3,0.9-2.5,1.2c-1.2,0.3-2.5,0.4-3.9,0.4c-0.7,0-1.3,0-1.9-0.1c-0.6-0.1-1-0.2-1.5-0.3
					C130.9,36.6,130.4,36.2,130.1,35.7z"/>
			</g>
		</g>
		<g id="XMLID_5_">
			<path id="XMLID_19_" class="st1" d="M145.5,53.6c0,0,0-0.3,0.1-0.8c0-0.5,0.1-1.2,0.1-2.1c0-0.9-0.1-1.9-0.1-2.9
				c-0.1-0.5-0.1-1.1-0.2-1.6c-0.1-0.6-0.1-1.1-0.3-1.7c-0.1-0.6-0.3-1.1-0.4-1.7c-0.1-0.5-0.4-1.1-0.5-1.6c-0.3-1-0.8-1.9-1.1-2.7
				c-0.3-0.8-0.7-1.4-1-1.9c-0.2-0.4-0.4-0.7-0.4-0.7l0.7-0.4c0,0,0.1,0.3,0.4,0.7c0.2,0.5,0.7,1.1,1,1.9c0.4,0.8,0.8,1.7,1.1,2.8
				c0.2,0.5,0.4,1.1,0.5,1.6c0.1,0.6,0.3,1.1,0.4,1.7c0.2,0.6,0.2,1.2,0.3,1.7c0.1,0.6,0.2,1.1,0.2,1.7c0,1.1,0.1,2.1,0.1,3
				c-0.1,0.9-0.1,1.6-0.1,2.1c0,0.5-0.1,0.8-0.1,0.8L145.5,53.6z"/>
			<g id="XMLID_9_">
				<path id="XMLID_18_" class="st1" d="M134.1,41c0.6-0.5,1.6-0.9,2.7-1.2c1.2-0.3,2.6-0.3,4,0c0.7,0.2,1.4,0.4,2,0.8
					c0.5,0.3,1,0.7,1.4,1.1c0.8,0.8,1.1,1.7,1.1,2.4c-0.7,0.3-1.7,0.4-2.9,0.3c-1.2-0.1-2.5-0.4-3.9-0.8c-0.7-0.2-1.3-0.4-1.8-0.6
					c-0.5-0.2-1-0.4-1.3-0.6C134.7,41.9,134.2,41.5,134.1,41z"/>
				<path id="XMLID_17_" class="st1" d="M150.7,31.7c-0.7,0.2-1.6,0.9-2.3,1.9c-0.8,1-1.4,2.3-2.1,3.8c-0.3,0.8-0.5,1.5-0.7,2.1
					c-0.2,0.7-0.3,1.3-0.4,1.9c-0.1,1.1-0.1,2.1,0.3,2.7c0.7,0,1.7-0.3,2.8-1.1c1-0.7,2.1-1.9,2.7-3.4c0.3-0.8,0.6-1.6,0.7-2.4
					c0.1-0.8,0.1-1.5,0.1-2.3C151.7,33.5,151.2,32.3,150.7,31.7z"/>
			</g>
			<g id="XMLID_6_">
				<path id="XMLID_8_" class="st1" d="M154.9,43.1c-0.8,0-1.7,0.3-2.8,1.1c-1.1,0.7-2.2,1.8-3.2,3c-1,1.2-2,2.4-2.5,3.5
					c-0.5,1-0.8,1.9-0.8,2.6v0c1.2,0.4,4.4-0.1,6.8-2.5c1.1-1.2,2-2.7,2.3-4.1C155.2,45.2,155.2,43.9,154.9,43.1z"/>
				<path id="XMLID_7_" class="st1" d="M136.3,46.7c0.7-0.2,1.8-0.4,3-0.2c1.2,0.1,2.5,0.5,3.8,1.3c1.2,0.8,2,1.9,2.5,2.9
					c0.4,1,0.2,2,0.2,2.6v0c-1.8,0.2-4.1-1-6.3-2.6c-1.2-0.8-1.9-1.6-2.5-2.2C136.4,47.7,136.2,47.1,136.3,46.7z"/>
			</g>
		</g>
	</g>
	<g>
		<g>
			<path class="st2" d="M31.1,69.9h2.1v14.3H40v1.7h-8.9V69.9z"/>
			<path class="st2" d="M44.9,80.9l-1.7,5h-2.1l5.4-16H49l5.5,16h-2.2l-1.7-5H44.9z M50.1,79.3l-1.6-4.6c-0.4-1-0.6-2-0.8-2.9h0
				c-0.2,1-0.5,1.9-0.8,2.9l-1.6,4.6H50.1z"/>
			<path class="st2" d="M61.9,69.9h8.6v1.7H64v5.3H70v1.7H64v7.3h-2.1V69.9z"/>
			<path class="st2" d="M74.2,80.9l-1.7,5h-2.1l5.4-16h2.5l5.5,16h-2.2l-1.7-5H74.2z M79.5,79.3l-1.6-4.6c-0.4-1-0.6-2-0.8-2.9h0
				c-0.2,1-0.5,1.9-0.8,2.9l-1.6,4.6H79.5z"/>
			<path class="st2" d="M86.2,70.1c0.9-0.2,2.3-0.3,3.8-0.3c2.1,0,3.4,0.4,4.4,1.2c0.8,0.6,1.3,1.6,1.3,2.8c0,1.5-1,2.9-2.7,3.5v0
				c1.5,0.4,3.3,1.6,3.3,4c0,1.4-0.5,2.4-1.4,3.2c-1.1,1-2.9,1.5-5.5,1.5c-1.4,0-2.5-0.1-3.2-0.2V70.1z M88.2,76.7h1.9
				c2.2,0,3.5-1.1,3.5-2.7c0-1.9-1.4-2.6-3.5-2.6c-1,0-1.5,0.1-1.8,0.1V76.7z M88.2,84.3c0.4,0.1,1,0.1,1.7,0.1
				c2.1,0,4.1-0.8,4.1-3.1c0-2.2-1.9-3.1-4.1-3.1h-1.7V84.3z"/>
			<path class="st2" d="M99.1,70.1c1-0.2,2.5-0.3,4-0.3c2.2,0,3.6,0.4,4.6,1.3c0.8,0.7,1.3,1.8,1.3,3c0,2.1-1.3,3.5-3,4.1v0.1
				c1.2,0.4,2,1.6,2.4,3.2c0.5,2.2,0.9,3.8,1.2,4.4h-2.1c-0.3-0.5-0.6-1.8-1.1-3.8c-0.5-2.2-1.3-3-3.2-3.1h-2v6.9h-2.1V70.1z
				 M101.1,77.4h2.1c2.2,0,3.6-1.2,3.6-3c0-2.1-1.5-3-3.7-3c-1,0-1.7,0.1-2,0.2V77.4z"/>
			<path class="st2" d="M113.9,69.9v16h-2.1v-16H113.9z"/>
			<path class="st2" d="M128.7,85.4c-0.8,0.4-2.3,0.8-4.2,0.8c-4.5,0-7.9-2.9-7.9-8.1c0-5,3.4-8.4,8.4-8.4c2,0,3.3,0.4,3.8,0.7
				l-0.5,1.7c-0.8-0.4-1.9-0.7-3.2-0.7c-3.8,0-6.3,2.4-6.3,6.6c0,3.9,2.3,6.4,6.2,6.4c1.3,0,2.5-0.3,3.4-0.7L128.7,85.4z"/>
			<path class="st2" d="M134,80.9l-1.7,5h-2.1l5.4-16h2.5l5.5,16h-2.2l-1.7-5H134z M139.3,79.3l-1.6-4.6c-0.4-1-0.6-2-0.8-2.9h0
				c-0.2,1-0.5,1.9-0.8,2.9l-1.6,4.6H139.3z"/>
		</g>
	</g>
</g>
</svg>
