<svg id="Layer_1" data-name="Layer 1" xmlns="http://www.w3.org/2000/svg" viewBox="0 0 150 96.68"><defs><style>.cls-1{fill:#aaa;opacity:0.3;}.cls-2{fill:#fcfafa;}</style></defs><title>sold-out</title><rect class="cls-1" y="26.71" width="150" height="49.81"/><path class="cls-2" d="M24.05,70.36c0-.8.34-1.2,1-1.2a3.59,3.59,0,0,1,1.33.34,4,4,0,0,0,1.43.34,1.94,1.94,0,0,0,1.31-.77,5.57,5.57,0,0,0,1.1-1.91A13,13,0,0,0,31,63a13.77,13.77,0,0,0-.66-4,26.07,26.07,0,0,0-1.6-4.05c-.63-1.26-1.27-2.52-1.91-3.78a18.14,18.14,0,0,1-2.27-8.21,7,7,0,0,1,2.22-5.52,4.07,4.07,0,0,1,2.79-1,3.12,3.12,0,0,1,1.59.45,2.46,2.46,0,0,1,1.07,1.17l-.77,1a3.12,3.12,0,0,1-1.76-.44,2.21,2.21,0,0,0-1.45.79,4.75,4.75,0,0,0-1.12,3.2,14.34,14.34,0,0,0,.49,3.7,16.09,16.09,0,0,0,1.21,3.23l1.56,3.1c.57,1.11,1.09,2.18,1.58,3.21a17.62,17.62,0,0,1,1.69,7.69A11.25,11.25,0,0,1,32.23,69a6,6,0,0,1-1.94,2.1,4.8,4.8,0,0,1-2.74.82A5.64,5.64,0,0,1,25,71.4C24.37,71.07,24.05,70.73,24.05,70.36Z"/><path class="cls-2" d="M47.5,57.31,47.1,63v.2a12.23,12.23,0,0,0-.28,2.7,7.85,7.85,0,0,1-.51,2.8,6.59,6.59,0,0,1-1.54,2.4,3.09,3.09,0,0,1-2.26,1,3.4,3.4,0,0,1-2.24-.83,6.67,6.67,0,0,1-1.67-2.14,17.19,17.19,0,0,1-1.16-3.12,30.57,30.57,0,0,1-.78-3.54c-.19-1.15-.34-2.36-.46-3.64-.17-1.95-.26-3.46-.25-4.54s0-2,0-2.76,0-1.46,0-2.08V47.27c0-.86,0-1.64.07-2.33s.11-1.43.2-2.23a21.32,21.32,0,0,1,.36-2.11,11.76,11.76,0,0,1,.6-1.79A5.66,5.66,0,0,1,38,37.34a3.26,3.26,0,0,1,2.52-1.28,5.33,5.33,0,0,1,2.44.52,4.37,4.37,0,0,1,1.71,1.66,24.53,24.53,0,0,1,1.2,2.22,10.92,10.92,0,0,1,.82,3c.19,1.28.35,2.32.47,3.11A30.38,30.38,0,0,1,47.41,50c.06,2,.09,3.57.09,4.7Zm-4-16.47a4.74,4.74,0,0,0-1.12-1.78,2,2,0,0,0-1.33-.62A1.42,1.42,0,0,0,40,38.9a3.82,3.82,0,0,0-.72,1.31A16.18,16.18,0,0,0,38.72,42a16.91,16.91,0,0,0-.35,2.23c-.08.84-.15,1.61-.21,2.3s-.08,1.42-.11,2.24c0,1.36,0,2.42-.07,3.18v.2a49.19,49.19,0,0,0,.47,6.49q.45,3.5.95,5.71a14.59,14.59,0,0,0,1.33,3.76c.56,1,1.18,1.55,1.87,1.55s1.1-.56,1.52-1.69A18,18,0,0,0,45,63.77c.3-3,.45-5.08.45-6.29s0-2.09,0-2.65,0-1.37-.06-2.43-.1-2.06-.19-3-.2-2-.34-3.08a23,23,0,0,0-.55-3A22.57,22.57,0,0,0,43.51,40.84Z"/><path class="cls-2" d="M53.19,53.86l0,1.43v.2q.18,3.91.18,11.73v1.14h3.43q1,.66,1,1.26a1.43,1.43,0,0,1-.33,1,.9.9,0,0,1-.68.39,2.7,2.7,0,0,1-.81-.15,4.34,4.34,0,0,1-.86.08l-1.45-.06a1.45,1.45,0,0,1-1.15.55A1.68,1.68,0,0,1,51.36,71a1.31,1.31,0,0,1-.48-1l.29-2q0-5.11-.45-15.35t-.45-15.35a.82.82,0,0,1,.33-.67,1.35,1.35,0,0,1,.82-.25,1.3,1.3,0,0,1,.9.38,1.19,1.19,0,0,1,.41.92Z"/><path class="cls-2" d="M71.36,54.32l.11,1a20.46,20.46,0,0,1-1.69,7.51q-1.94,4.95-4.57,7A5,5,0,0,1,62.13,71a3.08,3.08,0,0,1-1.51-.38,1.24,1.24,0,0,1-.68-1.16q1-1,1-5.29c0-1.67-.13-4.16-.41-7.45s-.42-5.77-.42-7.41l.13-4.92a14.23,14.23,0,0,0-.49-3.2,13.86,13.86,0,0,1-.5-2.84q0-1.56,3.45-1.56h.68q4.59,0,6.66,5.14a27,27,0,0,1,1.45,9.89v2.09A.87.87,0,0,0,71.36,54.32Zm-8.28,9.76v4.31A10,10,0,0,0,66,65.32,16,16,0,0,0,67.93,61a33.39,33.39,0,0,0,1.23-8.9,20.75,20.75,0,0,0-1.27-8.05,7.46,7.46,0,0,0-3.21-4,5.6,5.6,0,0,0-2.68-.6v0q0,4.07.54,12.23T63.08,64.08Z"/><path class="cls-2" d="M90.7,57.31,90.3,63v.2A12.23,12.23,0,0,0,90,65.9a7.85,7.85,0,0,1-.51,2.8A6.72,6.72,0,0,1,88,71.1a3.11,3.11,0,0,1-2.26,1,3.4,3.4,0,0,1-2.24-.83,6.53,6.53,0,0,1-1.67-2.14,17.94,17.94,0,0,1-1.17-3.12,35.39,35.39,0,0,1-.78-3.54c-.18-1.15-.33-2.36-.45-3.64-.17-1.95-.26-3.46-.25-4.54s0-2,0-2.76,0-1.46,0-2.08V47.27c0-.86,0-1.64.07-2.33s.1-1.43.2-2.23a21.32,21.32,0,0,1,.36-2.11,11.76,11.76,0,0,1,.6-1.79,5.94,5.94,0,0,1,.87-1.47,3.29,3.29,0,0,1,2.53-1.28,5.36,5.36,0,0,1,2.44.52,4.35,4.35,0,0,1,1.7,1.66,24.71,24.71,0,0,1,1.21,2.22,10.92,10.92,0,0,1,.82,3c.19,1.28.35,2.32.47,3.11A32.93,32.93,0,0,1,90.61,50c.06,2,.09,3.57.09,4.7Zm-4-16.47a4.74,4.74,0,0,0-1.12-1.78,2,2,0,0,0-1.33-.62,1.42,1.42,0,0,0-1.09.46,3.66,3.66,0,0,0-.72,1.31A16.18,16.18,0,0,0,81.92,42a16.91,16.91,0,0,0-.35,2.23c-.08.84-.15,1.61-.21,2.3s-.08,1.42-.11,2.24c0,1.36,0,2.42-.07,3.18v.2a50.86,50.86,0,0,0,.46,6.49q.47,3.5,1,5.71a14.59,14.59,0,0,0,1.33,3.76c.56,1,1.18,1.55,1.87,1.55s1.1-.56,1.51-1.69a18,18,0,0,0,.88-4.22c.3-3,.45-5.08.45-6.29s0-2.09,0-2.65,0-1.37-.06-2.43-.1-2.06-.19-3-.2-2-.34-3.08a23,23,0,0,0-.55-3A22.57,22.57,0,0,0,86.71,40.84Z"/><path class="cls-2" d="M93.33,46.39l0-7a1.35,1.35,0,0,1-.33-.92,1.41,1.41,0,0,1,.38-1,1.2,1.2,0,0,1,.91-.42c1.09,0,1.63,1.07,1.63,3.21l.42,15.65a9.84,9.84,0,0,1,.45,2.39c.12,1.2.19,2.14.19,2.8a11.91,11.91,0,0,0,.31,2.46,23,23,0,0,0,.88,3,8.07,8.07,0,0,0,1.52,2.55,2.61,2.61,0,0,0,1.81,1.05,1.79,1.79,0,0,0,1.28-.4,2.35,2.35,0,0,0,.57-1.16,12.49,12.49,0,0,0,.24-2.48V57.29c0-.95-.1-2.37-.29-4.24s-.28-3.29-.28-4.24V48.5L103,45.89l-.33-7.72a1,1,0,0,1,.55-.89,2.22,2.22,0,0,1,1.14-.34l1.1,1.06v.75l-.33,2.74q0,3.76.41,11.32t.4,10.23c0,1.78,0,3-.07,3.56a12.14,12.14,0,0,1-.34,1.9,5.26,5.26,0,0,1-.73,1.67,3.75,3.75,0,0,1-3.29,1.53,5.06,5.06,0,0,1-4.42-2.39,16.22,16.22,0,0,1-2.46-6.11,52,52,0,0,1-1-7.36Q93.33,51.07,93.33,46.39Z"/><path class="cls-2" d="M114.6,44.77l-.08,5.8.39,10.35.37,8.08c0,1.47-.43,2.2-1.29,2.2a1.16,1.16,0,0,1-1.1-.7,3.5,3.5,0,0,1-.35-1.56l.35-7.19q0-2.32-.31-7c-.2-3.12-.31-5.46-.31-7l.07-3.93a13,13,0,0,0-.42-4.2l-2.44.24a1.63,1.63,0,0,1-1-.34,1,1,0,0,1-.45-.88c0-.35.36-.66,1.08-.91a12.15,12.15,0,0,1,2.63-.57,42.92,42.92,0,0,1,4.55-.31,1.51,1.51,0,0,1,1,.37,1.11,1.11,0,0,1,.45.91,1.08,1.08,0,0,1-.39.87,1.52,1.52,0,0,1-1,.31l-1.6-.08a2.77,2.77,0,0,0-.46,0A48.24,48.24,0,0,1,114.6,44.77Z"/><path class="cls-2" d="M123,70.32c0,1.05-.73,1.58-2.21,1.58a1.47,1.47,0,0,1-1-.47,1.66,1.66,0,0,1-.5-1.25,2.07,2.07,0,0,1,.55-1.41,1.74,1.74,0,0,1,1.36-.63,1.58,1.58,0,0,1,1.31.64A2.45,2.45,0,0,1,123,70.32ZM122.36,59l0,2.13c0,2-.27,3.08-.83,3.08-.31,0-.59-.37-.85-1.1a8.69,8.69,0,0,1-.38-2.77l.17-7.45-.22-14.76a1.56,1.56,0,0,1,.6-1.22,1.78,1.78,0,0,1,1.18-.52,1.27,1.27,0,0,1,.92.32,1.06,1.06,0,0,1,.31.78c0,2.4-.15,6-.47,10.77S122.36,56.57,122.36,59Z"/></svg>
