<svg id="Layer_1" data-name="Layer 1" xmlns="http://www.w3.org/2000/svg" viewBox="0 0 150 53.31"><defs><style>.cls-1{fill:#307753;}</style></defs><title>vegetarian</title><path class="cls-1" d="M145.51,38.88a.93.93,0,0,0-.37-.6.79.79,0,0,0-.63,0,.92.92,0,0,1-.82-.14c-.49-.3-1-.56-1.51-.81s-1.15-.58-1.69-.92a1.07,1.07,0,0,0-.36-.14,1,1,0,0,1-.35-.15A9.27,9.27,0,0,0,137,34.6l-.15-.05-1.68-.69-.31-.13a14.05,14.05,0,0,0-2.62-.86,18.27,18.27,0,0,0-5.19-.24h-.31a1.3,1.3,0,0,0-.58.06,6.12,6.12,0,0,1-1.69.32,10.64,10.64,0,0,0-2.89.72c-.1,0-.2.06-.3.09a2,2,0,0,0-.76.35,3.34,3.34,0,0,1-1,.57,8.21,8.21,0,0,0-1.65.95l-.47.35a12.35,12.35,0,0,0-2.18,1.86,6.18,6.18,0,0,0-1.56,2.94c-.1.47-.19.55-.67.61l-.36,0a4.45,4.45,0,0,0-.5,0,13.13,13.13,0,0,1-1.55.14,12.06,12.06,0,0,0-1.79.18s-.07,0-.11,0h0a1.63,1.63,0,0,1,.28-.71L109,41l.83-1.5c.76-1.39,1.56-2.83,2.44-4.19a5.07,5.07,0,0,0,.42-.84l.1-.21a14.52,14.52,0,0,1,1.38-2.48l.11-.13a1.1,1.1,0,0,0,.27-.54c0-.11,0-.18.28-.14l.16,0,.78.11,1,.08c.52,0,1.06.08,1.58.14a3.79,3.79,0,0,0,.88,0,12.28,12.28,0,0,0,3.76-.91l.55-.22c.52-.21,1-.41,1.55-.66a11.6,11.6,0,0,0,2.2-1.48l.69-.54a12.94,12.94,0,0,0,2.05-2.07c.29-.34.6-.7.91-1l.2-.17a1.33,1.33,0,0,0,.37-.41,12.33,12.33,0,0,1,.72-1.15,7.27,7.27,0,0,0,1.1-2.06c.36-1.2.65-2.28.89-3.29a31.29,31.29,0,0,0,.73-5.44,42.43,42.43,0,0,0-.07-5.64c0-.16-.05-.33-.07-.48a2,2,0,0,1,0-1.09c.13-.34-.2-.63-.43-.82a.59.59,0,0,0-.77,0,1.45,1.45,0,0,0-.18.16.46.46,0,0,1-.28.19,3.69,3.69,0,0,0-1.11.35,4.55,4.55,0,0,1-.51.21,21.74,21.74,0,0,0-2,.87c-.47.22-1,.45-1.44.65a2.36,2.36,0,0,0-.51.3,2,2,0,0,1-.48.29,15.53,15.53,0,0,0-1.6.72l-.71.35-.3.15a26.53,26.53,0,0,0-2.65,1.36l-.27.16c-.89.54-1.8,1.1-2.66,1.72s-1.42,1.09-2.09,1.65l-.85.7a9.32,9.32,0,0,0-1.77,2c-.16.22-.3.44-.44.66a7.42,7.42,0,0,1-.64.94,7.52,7.52,0,0,0-1.4,2.45,13.89,13.89,0,0,0-.49,4,8.09,8.09,0,0,0,.22,1.71,6.7,6.7,0,0,1,.21,1.82.62.62,0,0,0,.09.32l0,.06a8.34,8.34,0,0,0,1.4,2.06c.39.45.42.49.13.92a15.72,15.72,0,0,0-1,1.75c-.16.34-.33.68-.51,1-.28.52-.58,1-.87,1.53-.42.72-.85,1.46-1.24,2.21a5.3,5.3,0,0,1-.45.71,5,5,0,0,0-.54.89,12.69,12.69,0,0,1-.79,1.51c-.24.41-.49.84-.7,1.29a.75.75,0,0,1-.4.45.56.56,0,0,0-.35.69.86.86,0,0,1-.13.65,16.31,16.31,0,0,0-.91,1.5l-.26.49c-.26.47-.53,1-.78,1.44a2.22,2.22,0,0,1-.39.55L102.46,49a.75.75,0,0,0-.2.58.86.86,0,0,0,.23.5l.07.06a.54.54,0,0,0,.41.11.75.75,0,0,0,.52-.34,7.46,7.46,0,0,1,.56-.7l.21-.24.33-.39a8.15,8.15,0,0,0,1.12-1.47l1.09-2,1-1.78a.4.4,0,0,1,.35-.24c.35-.06.7-.08,1-.11l.84-.07c.43-.06.87-.08,1.3-.1a10.65,10.65,0,0,0,1.93-.21.44.44,0,0,1,.3,0,.61.61,0,0,1,.15.31,11.07,11.07,0,0,0,1.05,2.43A8.41,8.41,0,0,0,117.08,48a6.32,6.32,0,0,0,1.21.68c.23.11.47.22.69.35a12.56,12.56,0,0,0,4.85,1.29,9.23,9.23,0,0,0,1.74,0l.89-.09a16.1,16.1,0,0,1,1.85-.14,1.47,1.47,0,0,0,.5-.07l1.16-.41,1.42-.5a10.14,10.14,0,0,0,1.49-.69l.57-.3a28.17,28.17,0,0,0,4.07-2.45c.58-.42,1.21-.84,1.86-1.26a23.62,23.62,0,0,0,2.24-1.55,7.79,7.79,0,0,0,.66-.62,5.5,5.5,0,0,1,.71-.66l.17-.12a1.68,1.68,0,0,0,.46-.39A8.27,8.27,0,0,1,145,39.75l.23-.19A.59.59,0,0,0,145.51,38.88Zm-30.39,3.67a16.38,16.38,0,0,1,2.3-.35c.36,0,.74-.07,1.11-.12s.35,0,.42,0,.1.19.15.42a3.28,3.28,0,0,0,.52,1c.09.12.17.24.25.37a7.46,7.46,0,0,0,2.46,2.34,5.13,5.13,0,0,0,.84.43c.15.07.3.13.44.21a.84.84,0,0,0,.66.08.86.86,0,0,0,.45-.55.64.64,0,0,0-.1-.55.86.86,0,0,0-.59-.4,3.68,3.68,0,0,1-2.16-1.14,5.31,5.31,0,0,1-1.36-2c-.07-.18-.05-.23,0-.25s0,0,.25,0c1.68,0,3.51,0,5.61.13a.57.57,0,0,1,.39.13A6.15,6.15,0,0,0,130.1,44l.32.06a3.75,3.75,0,0,0,1.42.11.9.9,0,0,1,.49.11l.14.06a.72.72,0,0,0,.95-.32,1.07,1.07,0,0,0-.07-1,.42.42,0,0,0-.43-.11h-.06l-.32,0a3.94,3.94,0,0,1-1.28,0l-.59-.11a5.25,5.25,0,0,1-1.91-.59l0,0-.06,0a2.73,2.73,0,0,1,.77-.07h.35a28.33,28.33,0,0,0,3.47-.39c.93-.16,1.89-.24,2.87-.31a5.46,5.46,0,0,0,.86-.17l.12,0,2.48-.58a3.36,3.36,0,0,0,.84-.29.69.69,0,0,0,.37-.4.43.43,0,0,0-.08-.32,1.25,1.25,0,0,1-.08-.12c-.12-.21-.3-.52-.71-.43l-.14,0a2.16,2.16,0,0,0-.58.18,7.94,7.94,0,0,1-2.34.7l-.37.08c-.66.13-1.34.2-2,.27a21.56,21.56,0,0,0-2.24.32,1.8,1.8,0,0,1-.49.05l.62-.46a8.87,8.87,0,0,1,1.32-.91c.87-.47,1.8-1,2.72-1.53a.63.63,0,0,0,.34-.45.61.61,0,0,0-.56-.69.62.62,0,0,0-.5.2,2.9,2.9,0,0,1-1,.6l-.47.21c-.34.17-.67.37-1,.56l-.65.37a12,12,0,0,0-2.77,2,1.43,1.43,0,0,1-1.1.29h-.24l-.26,0a1.28,1.28,0,0,1-1.13-.29.41.41,0,0,0-.56,0,1.07,1.07,0,0,1-.81.14h0a25.68,25.68,0,0,0-2.73-.06h-.07c-.12,0-.14,0-.16,0a.28.28,0,0,1,0-.34,5.09,5.09,0,0,1,1.14-1.17,10.37,10.37,0,0,1,3.82-1.93.61.61,0,0,0,.48-.81.6.6,0,0,0-.34-.41.5.5,0,0,0-.49,0,5,5,0,0,1-.9.31,3.86,3.86,0,0,0-1.3.54,3.85,3.85,0,0,1-.69.39,4.44,4.44,0,0,0-.71.38,14.6,14.6,0,0,0-2.1,1.86c-.36.38-.37.46-.31,1.15-.3,0-.6,0-.89,0a7.64,7.64,0,0,1-1,0,3.31,3.31,0,0,0-1.06.15L118,41a10.71,10.71,0,0,1-1.12.14,8.91,8.91,0,0,0-1.75.3.34.34,0,0,1-.15,0,.43.43,0,0,1,0-.15,5,5,0,0,1,1.62-2.9l.27-.23A16.79,16.79,0,0,1,119,36.49c.43-.25.76-.44,1.07-.6l.28-.15a14,14,0,0,1,3-1.32,7.35,7.35,0,0,1,1-.18c.81-.12,1.54-.23,2.28-.41a8.33,8.33,0,0,1,2.26-.18,19.3,19.3,0,0,1,3.21.33,14.25,14.25,0,0,1,2.42.72l.24.09c.95.36,1.93.73,2.85,1.18l.43.2a17.71,17.71,0,0,1,2.62,1.45,6.06,6.06,0,0,0,1.51.69l.42.16.61.21.41.14c.13,0,.15.08.15.08s0,0-.07.12-.32.34-.47.51A8.86,8.86,0,0,1,142,40.7a18.28,18.28,0,0,0-1.55,1.35l-.48.46a7.71,7.71,0,0,1-1.26.88c-.23.14-.47.28-.69.44l-.62.43c-.37.26-.75.53-1.14.78l-1,.61c-.52.34-1.06.68-1.6,1a23.7,23.7,0,0,1-3.45,1.56l-.56.21a9.94,9.94,0,0,1-3,.54l-.47,0h0c-.46,0-.93.07-1.4.09a12.22,12.22,0,0,1-4.94-1,9.55,9.55,0,0,1-2.42-1.37,6.63,6.63,0,0,1-1.34-1.6L116,45a9.93,9.93,0,0,1-1-2.14.56.56,0,0,1-.05-.22A.61.61,0,0,1,115.12,42.55Zm4.5-18.17a14.37,14.37,0,0,1,4.49-1.16c1.55-.09,2.9-.22,4.13-.41a1.8,1.8,0,0,0,.76-.31.62.62,0,0,0,.25-.86.76.76,0,0,0-.78-.34.71.71,0,0,0-.22.07,5.76,5.76,0,0,1-2.24.39,12.3,12.3,0,0,0-1.5.12c-.36,0-.74.09-1.12.11a6.78,6.78,0,0,0-2.08.44s0,0,.06-.06a22.09,22.09,0,0,0,2.95-2.67c.22-.23.45-.46.68-.68a2.55,2.55,0,0,1,1-.63c.7-.28,1.38-.6,2-.9a7.44,7.44,0,0,0,.68-.38,3.82,3.82,0,0,1,1.07-.53,1.21,1.21,0,0,0,.53-.37l.09-.09.06-.06a.84.84,0,0,1,.4-.28.77.77,0,0,0,.53-.57l.06-.13a.52.52,0,0,0-.11-.56l0,0a.49.49,0,0,0-.65-.14,1.15,1.15,0,0,0-.33.25l-.05.05a11.09,11.09,0,0,1-3.22,2,8.4,8.4,0,0,0,1.23-1.58,11.22,11.22,0,0,1,.81-1.14,8.27,8.27,0,0,0,.86-1.29,12.75,12.75,0,0,1,.7-1.1.86.86,0,0,0,.15-.39.61.61,0,0,1,.11-.32.22.22,0,0,0,0-.26.5.5,0,0,0-.12-.17.34.34,0,0,0-.4-.05,1.34,1.34,0,0,0-.62.57,23.12,23.12,0,0,1-1.4,2,18.16,18.16,0,0,0-1.5,2.11,6.73,6.73,0,0,1-1,1.23c-.2.21-.41.42-.6.64l-.45.49a9.66,9.66,0,0,0-.71.83,6.2,6.2,0,0,1-1.41,1.35.14.14,0,0,1,0-.12c0-.19,0-.39.07-.58a5.18,5.18,0,0,1,.34-1.57c.41-.91.75-1.85,1.09-2.8a4,4,0,0,1,.31-.62,3.1,3.1,0,0,0,.38-.87.63.63,0,0,0-.31-.82.71.71,0,0,0-.52.06.54.54,0,0,0-.32.31,12.31,12.31,0,0,1-.88,2,15,15,0,0,0-.9,2.09,5.37,5.37,0,0,1-.21.56,3.55,3.55,0,0,0-.32,1.22,12.12,12.12,0,0,1-.15,1.35c0,.38-.11.77-.13,1.16,0,.11,0,.16-.07.19a18.26,18.26,0,0,0-1.93,1.79c-.43.43-.87.87-1.33,1.28a.66.66,0,0,1,0-.32c0-.35,0-.69,0-1a24.21,24.21,0,0,0-.06-2.69,11.22,11.22,0,0,1,0-1.16,6.78,6.78,0,0,0,0-1.35.79.79,0,0,0-.32-.56.71.71,0,0,0-.59-.08.45.45,0,0,0-.35.46l0,1.06c0,.77,0,1.57-.09,2.34a14.1,14.1,0,0,0,.09,2.93,4.29,4.29,0,0,1,0,1.41c0,.06,0,.12,0,.17a.8.8,0,0,0,0,.69s0,.06-.07.15-.22.31-.32.46a3.25,3.25,0,0,1-.56.71,2.33,2.33,0,0,0-.55.81,5.08,5.08,0,0,1-.3.52c-.11.15-.19.23-.24.23s-.1,0-.25-.21a4.74,4.74,0,0,1-1.26-2.85c0-.35-.06-.69-.09-1a13.63,13.63,0,0,1-.1-2.3,7.27,7.27,0,0,1,.9-3.45c.68-1.05,1.41-2.17,2.2-3.19a16.47,16.47,0,0,1,2.74-2.6l.2-.16c.56-.45,1.17-.86,1.76-1.26s1-.68,1.51-1.06a1.2,1.2,0,0,1,.4-.18,1.75,1.75,0,0,0,.42-.19,22.8,22.8,0,0,1,3.42-1.72l.57-.25c.5-.22,1-.47,1.47-.71a21.29,21.29,0,0,1,1.93-.91c.44-.17.86-.38,1.27-.58a12.52,12.52,0,0,1,1.89-.78l.27-.06a1.15,1.15,0,0,1,.07.27,19.49,19.49,0,0,1,.3,3.31c0,.32,0,.63,0,.95a19.74,19.74,0,0,1-.09,2.31l0,.23a29.69,29.69,0,0,1-.39,3.18c-.2,1-.47,2.09-.73,3.1a7.47,7.47,0,0,1-.29.79l-.15.35-.57,1.46s0,0,0,.06v0c-.28.35-.54.72-.79,1.08a10.57,10.57,0,0,1-1.61,1.94,21.26,21.26,0,0,0-1.81,1.85,3.46,3.46,0,0,1-.72.59c-.24.16-.46.32-.69.49a12.37,12.37,0,0,1-1.67,1.05c-.62.29-1.28.57-2,.81A10,10,0,0,1,118,30a8.87,8.87,0,0,1-2.42-.52,11.57,11.57,0,0,1,1.7-2.55,4.75,4.75,0,0,0,.54-.73c.09-.13.17-.27.27-.4A3.74,3.74,0,0,1,119.62,24.38Z"/><path class="cls-1" d="M6,14.88q1,0,3.36,15.31.92,6,1,6.46c.17-1.37.46-3.55.89-6.57A106.36,106.36,0,0,0,12.6,15.5a1.63,1.63,0,0,1,1.33-.73l.76.41c-.06.42-.19,1.59-.39,3.54s-.39,3.69-.57,5.23-.35,3-.51,4.36l-.54,4.34q-.3,2.3-.57,4.11c-.17,1.22-.35,2.33-.53,3.34-.38,2.12-.69,3.18-.92,3.18a1.09,1.09,0,0,1-.86-.39q-.88-3.66-2.59-14.22T5,15.59A1,1,0,0,1,6,14.88Z"/><path class="cls-1" d="M20.67,29.34l-.91,0a.89.89,0,0,0-.74.27V40.81l2-.11c1.39,0,2.08.32,2.08,1v.13a1.64,1.64,0,0,1-.85.76,3.17,3.17,0,0,1-1.07.3c-.31,0-.7,0-1.19,0H18.87c-.9,0-1.46-.18-1.67-.54a1.33,1.33,0,0,1-.14-.65V20.53a10,10,0,0,0-.25-1.85,9.83,9.83,0,0,1-.25-1.86v-.13a7.12,7.12,0,0,1,.91-1.28l2.7-.32a2.16,2.16,0,0,1,1.11.33,1,1,0,0,1,.56.86c0,.73-.55,1.09-1.65,1.09l-1.05,0-.39,0,.28,6q0,.74-.09,2.13c-.05.93-.09,1.61-.09,2a5.14,5.14,0,0,0,.54-.12,5,5,0,0,1,1.16-.2,1.08,1.08,0,0,1,.75.3,1,1,0,0,1,.33.73,1.21,1.21,0,0,1-.27.77A.86.86,0,0,1,20.67,29.34Z"/><path class="cls-1" d="M32.92,36.08l-1.42.14c-.83,0-1.24-.34-1.24-1s.78-1,2.34-1.16c.31,0,.65-.05,1-.05a1.13,1.13,0,0,1,.94.57A2.63,2.63,0,0,1,35,36.07a20.38,20.38,0,0,0,.37,3.1,21.87,21.87,0,0,1,.36,2.9c0,.89-.3,1.33-.9,1.33a1.16,1.16,0,0,1-1.2-.76v0c-.14.06-.41.2-.8.41a4.43,4.43,0,0,1-2.19.61A4.15,4.15,0,0,1,29,43.3a4.91,4.91,0,0,1-2.56-2.23,10.62,10.62,0,0,1-1.27-3.16c-.2-1-.33-1.8-.4-2.38s-.15-1.27-.2-2c-.06-1-.09-2.12-.09-3.47l0-2.69a39.09,39.09,0,0,1,.23-5.05c.16-1,.32-1.85.48-2.5a10.8,10.8,0,0,1,.56-1.74,9.46,9.46,0,0,1,.78-1.47,4.57,4.57,0,0,1,1.07-1.19,4.65,4.65,0,0,1,3-1c1.11,0,1.67.35,1.67,1A.75.75,0,0,1,32,16a1,1,0,0,1-.67.24l-1.05-.18a2.42,2.42,0,0,0-2.15,1.65A12.08,12.08,0,0,0,27,21.16c-.16,1.07-.27,1.95-.34,2.61A22.18,22.18,0,0,0,26.5,26c0,1.15-.06,2.3-.05,3.45l0,2.26a27.89,27.89,0,0,0,.31,5A16.44,16.44,0,0,0,27.39,39a5.14,5.14,0,0,0,.79,1.46,5.88,5.88,0,0,0,2.64,1.3,3.18,3.18,0,0,0,2.69-1.53A10.35,10.35,0,0,0,32.92,36.08Z"/><path class="cls-1" d="M41.73,29.34l-.91,0a.91.91,0,0,0-.75.27V40.81l2-.11c1.39,0,2.08.32,2.08,1v.13a1.64,1.64,0,0,1-.85.76,3.24,3.24,0,0,1-1.07.3c-.31,0-.7,0-1.19,0H39.93c-.9,0-1.46-.18-1.67-.54a1.23,1.23,0,0,1-.14-.65V20.53a10.9,10.9,0,0,0-.25-1.85,9.83,9.83,0,0,1-.25-1.86v-.13a6.63,6.63,0,0,1,.91-1.28l2.7-.32a2.16,2.16,0,0,1,1.11.33,1,1,0,0,1,.56.86c0,.73-.55,1.09-1.65,1.09l-1,0-.39,0,.28,6q0,.74-.09,2.13c-.06.93-.09,1.61-.09,2l.54-.12a4.91,4.91,0,0,1,1.16-.2,1.08,1.08,0,0,1,.75.3,1,1,0,0,1,.33.73,1.21,1.21,0,0,1-.27.77A.86.86,0,0,1,41.73,29.34Z"/><path class="cls-1" d="M50.35,21.53l-.07,4.69.32,8.38.3,6.55q0,1.77-1,1.77a.92.92,0,0,1-.88-.57,2.75,2.75,0,0,1-.29-1.26L49,35.28c0-1.26-.09-3.15-.25-5.68s-.25-4.41-.25-5.67l.05-3.18a10.39,10.39,0,0,0-.34-3.4l-2,.2a1.36,1.36,0,0,1-.83-.28.85.85,0,0,1-.36-.71c0-.29.29-.54.87-.74A9.41,9.41,0,0,1,48,15.36a32.63,32.63,0,0,1,3.68-.25,1.28,1.28,0,0,1,.81.29.9.9,0,0,1,.37.74.85.85,0,0,1-.32.7,1.17,1.17,0,0,1-.78.26L50.48,17l-.38,0A37.22,37.22,0,0,1,50.35,21.53Z"/><path class="cls-1" d="M61.7,42.66c-.75,0-1.12-.32-1.12-.95V37a5.22,5.22,0,0,0-1.86-.61A23.41,23.41,0,0,0,56.33,36a6.1,6.1,0,0,0-.62,1.85c-.16.81-.32,1.62-.49,2.44a6.47,6.47,0,0,1-.69,1.94c-1,0-1.48-.25-1.6-.73.33-.48.87-2.9,1.62-7.28s1.36-7.8,1.84-10.27A50.68,50.68,0,0,1,58,17.76c.55-1.68,1.09-2.53,1.6-2.53a1.87,1.87,0,0,1,1.17.32q0,1.31.71,7c.48,3.82.71,6.29.71,7.41s.13,3,.39,5.58.38,4.56.38,5.86A1.08,1.08,0,0,1,61.7,42.66ZM60.17,30.77c-.21-2.15-.41-4.2-.58-6.16s-.26-3.13-.26-3.53,0-.65,0-.71q-.57.59-1.64,6.53t-1.15,7.52a9.72,9.72,0,0,0,2.53.41,7,7,0,0,0,1.45-.1C60.51,34.24,60.38,32.92,60.17,30.77Z"/><path class="cls-1" d="M65.38,41.61l.14-21.36V15.77a.84.84,0,0,1,.18-.61,1.49,1.49,0,0,1,.93-.18,3.58,3.58,0,0,1,1.53.37,3.9,3.9,0,0,1,1.31,1,7.57,7.57,0,0,1,.89,1.42A7.72,7.72,0,0,1,71.07,21a11.29,11.29,0,0,1-.89,4.07l-.42,1-.38,1a25.28,25.28,0,0,0,1.37,7q.47,1.46,1.32,4c.57,1.69.92,2.76,1.07,3.21v.09c0,.82-.1,1.3-.29,1.43a1,1,0,0,1-.6.21c-.45,0-.89-.33-1.32-1V42a45.74,45.74,0,0,0-2.28-10c-.64-2-1.08-3.55-1.33-4.53V41.75a1.55,1.55,0,0,1-.2.85.76.76,0,0,1-.71.31,1,1,0,0,1-.77-.3,1,1,0,0,1-.26-.72Zm2-24.95-.2,7.43c0,.75,0,1.3,0,1.67a11.69,11.69,0,0,0,1.23-1.4L69,21.21a3.27,3.27,0,0,0,0-.57,7.87,7.87,0,0,0-.36-2.12C68.39,17.39,68,16.76,67.39,16.66Z"/><path class="cls-1" d="M79.09,17l-.64,0a.6.6,0,0,0-.69.75q0,3.55.44,10.65t.45,10.65v1.41a4.68,4.68,0,0,1,.74,0c1,0,1.52.42,1.52,1.28v.21l-.91.62-2.47.09q-3.15,0-3.15-1.08c0-.58.37-.87,1.1-.87l.77,0c.35,0,.53-.29.53-.85,0-1.88-.11-4.68-.34-8.43S76.1,24.9,76.1,23l.08-3.71a19.64,19.64,0,0,0-.09-2,2.68,2.68,0,0,1-.86.16.76.76,0,0,1-.85-.87.93.93,0,0,1,.55-.78,4.16,4.16,0,0,1,1.37-.47,14.23,14.23,0,0,1,2.27-.26,1.54,1.54,0,0,1,1.06.29A.92.92,0,0,1,80,16a1.08,1.08,0,0,1-.24.7A.78.78,0,0,1,79.09,17Z"/><path class="cls-1" d="M90.79,42.66c-.74,0-1.12-.32-1.12-.95V37a5.15,5.15,0,0,0-1.85-.61,23.57,23.57,0,0,0-2.4-.32,6.42,6.42,0,0,0-.61,1.85c-.16.81-.33,1.62-.5,2.44a6.48,6.48,0,0,1-.68,1.94c-.95,0-1.49-.25-1.6-.73.33-.48.87-2.9,1.61-7.28S85,26.46,85.49,24A50.85,50.85,0,0,1,87,17.76c.56-1.68,1.09-2.53,1.6-2.53a1.93,1.93,0,0,1,1.18.32c0,.87.23,3.21.71,7s.71,6.29.71,7.41.13,3,.38,5.58.38,4.56.38,5.86A1.08,1.08,0,0,1,90.79,42.66ZM89.27,30.77q-.33-3.22-.58-6.16c-.17-1.95-.26-3.13-.26-3.53a4.88,4.88,0,0,1,0-.71q-.57.59-1.65,6.53t-1.15,7.52a9.79,9.79,0,0,0,2.54.41,7,7,0,0,0,1.45-.1C89.6,34.24,89.48,32.92,89.27,30.77Z"/><path class="cls-1" d="M94.28,23.59l.25-6.68v-.24c0-1.21.27-1.81.8-1.81s1.14,1.13,2,3.38a179.84,179.84,0,0,1,5.37,20.26l0,.17L102.84,26V15.2a1.08,1.08,0,0,1,1.19-.91c.65,0,1,.48,1,1.42v.22a2.31,2.31,0,0,0-.22,1.06l-.23,13.47V41.59a2.21,2.21,0,0,1-.3,1.09.88.88,0,0,1-.75.53c-.51,0-1.5-2.5-3-7.5s-2.94-10.37-4.39-16.12v12c0,1.16.09,2.9.26,5.2s.26,4,.26,5.19a.66.66,0,0,1-.41.56,2.16,2.16,0,0,1-1,.22q-.63,0-.63-.57l.17-2.61c0-1.26-.07-3.3-.23-6.12s-.23-4.55-.23-5.18Z"/></svg>
